<svg width="102" height="50" viewBox="0 0 102 50" fill="none" xmlns="http://www.w3.org/2000/svg">
<path fill-rule="evenodd" clip-rule="evenodd" d="M67.1642 1.08579C67.9453 1.86683 67.9453 3.13317 67.1642 3.91421L22.1642 48.9142C21.3832 49.6953 20.1168 49.6953 19.3358 48.9142L0.585786 30.1642C-0.195262 29.3832 -0.195262 28.1168 0.585786 27.3358C1.36683 26.5547 2.63317 26.5547 3.41421 27.3358L20.75 44.6716L64.3358 1.08579C65.1168 0.304738 66.3832 0.304738 67.1642 1.08579ZM100.914 1.08579C101.695 1.86683 101.695 3.13317 100.914 3.91421L55.9142 48.9142C55.1332 49.6953 53.8668 49.6953 53.0858 48.9142L45.5858 41.4142C44.8047 40.6332 44.8047 39.3668 45.5858 38.5858C46.3668 37.8047 47.6332 37.8047 48.4142 38.5858L54.5 44.6716L98.0858 1.08579C98.8668 0.304738 100.133 0.304738 100.914 1.08579Z" fill="#EC6608"/>
</svg>
