<svg width="28" height="29" viewBox="0 0 28 29" fill="none" xmlns="http://www.w3.org/2000/svg">
<path d="M26.9342 8.84256C23.9802 1.71045 15.7742 -1.68829 8.64258 1.26567C1.51047 4.21974 -1.88827 12.4257 1.06575 19.5573C4.01977 26.6894 12.2257 30.0881 19.3578 27.1341C26.4899 24.1801 29.8882 15.9742 26.9342 8.84256ZM25.2933 8.64656L20.005 8.19484L19.5542 2.90423C21.98 4.09604 24.0268 6.06584 25.2933 8.64656ZM20.4447 9.63679L24.2354 9.96022L21.7835 12.8694L20.4447 9.63679ZM24.2354 18.4382L20.4451 18.7621L21.7835 15.5308L24.2354 18.4382ZM18.5626 7.7552L15.3313 6.41677L18.2401 3.96583L18.5626 7.7552ZM18.0604 2.28538L13.9999 5.70791L9.94175 2.28675C12.6625 1.35766 15.5026 1.41273 18.0604 2.28538ZM9.76073 3.96539L12.669 6.41683L9.4378 7.75526L9.76073 3.96539ZM8.44565 2.90653L7.9953 8.19527L2.70376 8.64656C3.89514 6.22077 5.86499 4.17353 8.44565 2.90653ZM6.21636 12.869L3.76449 9.96158L7.55479 9.63772L6.21636 12.869ZM6.21685 15.5304L7.55572 18.763L3.76498 18.4396L6.21685 15.5304ZM2.08541 10.1404L5.5075 14.2004L2.08727 18.259C1.15812 15.5383 1.21275 12.6982 2.08541 10.1404ZM2.70655 19.7533L7.99486 20.205L8.44615 25.4956C6.01992 24.3038 3.97312 22.3339 2.70655 19.7533ZM9.43731 20.6446L12.6685 21.9831L9.7598 24.434L9.43731 20.6446ZM9.93945 26.1145L14 22.6919L18.0581 26.1131C15.3374 27.0422 12.4973 26.9871 9.93945 26.1145ZM18.2392 24.4344L15.3309 21.983L18.5621 20.6446L18.2392 24.4344ZM18.8221 19.0215L13.9995 21.0189L9.17836 19.022L7.181 14.1995L9.17787 9.37834L14.0004 7.38097L18.8216 9.37784L20.8189 14.2004L18.8221 19.0215ZM19.5543 25.4933L20.0046 20.2046L25.2962 19.7533C24.1047 22.179 22.1349 24.2263 19.5543 25.4933ZM25.9145 18.2595L22.4924 14.1999L25.9126 10.1413C26.8418 12.8615 26.7872 15.7017 25.9145 18.2595Z" fill="#EC6608"/>
</svg>
