<svg width="24" height="24" viewBox="0 0 24 24" fill="none" xmlns="http://www.w3.org/2000/svg">
<path fill-rule="evenodd" clip-rule="evenodd" d="M0.792893 0.792893C1.18342 0.402369 1.81658 0.402369 2.20711 0.792893L12 10.5858L21.793 0.792889C22.1835 0.402367 22.8167 0.402371 23.2072 0.792897C23.5977 1.18342 23.5977 1.81659 23.2072 2.20711L13.4142 12L23.2071 21.7929C23.5976 22.1834 23.5976 22.8166 23.2071 23.2071C22.8166 23.5976 22.1834 23.5976 21.7929 23.2071L12 13.4142L2.20711 23.2072C1.81659 23.5977 1.18342 23.5977 0.792897 23.2072C0.402371 22.8167 0.402367 22.1835 0.792889 21.793L10.5858 12L0.792893 2.20711C0.402369 1.81658 0.402369 1.18342 0.792893 0.792893Z" fill="white"/>
</svg>
