<svg width="26" height="32" viewBox="0 0 26 32" fill="none" xmlns="http://www.w3.org/2000/svg">
<path fill-rule="evenodd" clip-rule="evenodd" d="M0.484375 1.00039C0.484375 0.530949 0.864933 0.150391 1.33438 0.150391H16.3344C16.5598 0.150391 16.776 0.239944 16.9354 0.39935L25.2687 8.73268C25.4282 8.89209 25.5177 9.10829 25.5177 9.33372V31.0004C25.5177 31.4698 25.1371 31.8504 24.6677 31.8504H1.33438C0.864933 31.8504 0.484375 31.4698 0.484375 31.0004V1.00039ZM2.18438 1.85039V30.1504H23.8177V11.8504H18.001C16.8913 11.8504 15.8526 11.3041 15.1083 10.5598C14.364 9.81547 13.8177 8.77684 13.8177 7.66706V1.85039H2.18438ZM15.5177 1.85039V7.66706C15.5177 8.22394 15.8047 8.85198 16.3104 9.35768C16.8161 9.86339 17.4442 10.1504 18.001 10.1504H23.8177V9.68581L15.9823 1.85039H15.5177ZM5.48437 17.6671C5.48437 17.1976 5.86493 16.8171 6.33437 16.8171H16.3344C16.8038 16.8171 17.1844 17.1976 17.1844 17.6671C17.1844 18.1365 16.8038 18.5171 16.3344 18.5171H6.33437C5.86493 18.5171 5.48437 18.1365 5.48437 17.6671ZM5.48437 24.3337C5.48437 23.8643 5.86493 23.4837 6.33437 23.4837H19.6677C20.1371 23.4837 20.5177 23.8643 20.5177 24.3337C20.5177 24.8032 20.1371 25.1837 19.6677 25.1837H6.33437C5.86493 25.1837 5.48437 24.8032 5.48437 24.3337Z" fill="white"/>
</svg>
