<svg width="26" height="26" viewBox="0 0 26 26" fill="none" xmlns="http://www.w3.org/2000/svg">
<path fill-rule="evenodd" clip-rule="evenodd" d="M8.75337 8.69239C8.71324 8.22565 8.30289 7.87986 7.83683 7.92005C5.48702 8.12269 3.66171 8.84491 2.453 10.3367C1.26327 11.8052 0.800005 13.8645 0.800005 16.4471V16.6079C0.800005 19.4566 1.36438 21.6716 2.84377 23.1532C4.32315 24.6348 6.53494 25.2 9.37939 25.2H17.4206C20.2651 25.2 22.4769 24.6348 23.9562 23.1532C25.4356 21.6716 26 19.4566 26 16.6079V16.4471C26 13.8833 25.543 11.8362 24.3723 10.3707C23.182 8.88067 21.3835 8.14913 19.0679 7.93295C18.6022 7.88947 18.1894 8.23235 18.146 8.69881C18.1026 9.16526 18.4449 9.57864 18.9107 9.62213C20.9678 9.81417 22.2511 10.431 23.0495 11.4305C23.8675 12.4545 24.306 14.0381 24.306 16.4471V16.6079C24.306 19.2888 23.7649 20.9457 22.7584 21.9536C21.7519 22.9616 20.0975 23.5035 17.4206 23.5035H9.37939C6.70248 23.5035 5.04807 22.9616 4.0416 21.9536C3.03514 20.9457 2.494 19.2888 2.494 16.6079V16.4471C2.494 14.0198 2.93862 12.4299 3.76844 11.4057C4.57929 10.4049 5.88524 9.79113 7.98217 9.61029C8.44823 9.5701 8.79351 9.15914 8.75337 8.69239Z" fill="white"/>
<path fill-rule="evenodd" clip-rule="evenodd" d="M13.3958 15.7739C13.8636 15.7739 14.2428 15.3942 14.2428 14.9257L14.2428 0.848297C14.2428 0.379822 13.8636 4.7565e-05 13.3958 4.76072e-05C12.928 4.76495e-05 12.5488 0.379822 12.5488 0.848297L12.5488 14.9257C12.5488 15.3942 12.928 15.7739 13.3958 15.7739Z" fill="white"/>
<path fill-rule="evenodd" clip-rule="evenodd" d="M13.3951 17.1594C13.6197 17.1594 13.8351 17.0701 13.994 16.911L18.1319 12.7669C18.4627 12.4357 18.4627 11.8986 18.1319 11.5673C17.8012 11.2361 17.2649 11.2361 16.9341 11.5673L13.3951 15.1116L9.85607 11.5673C9.5253 11.2361 8.98901 11.2361 8.65824 11.5673C8.32746 11.8986 8.32746 12.4357 8.65823 12.7669L12.7962 16.911C12.955 17.0701 13.1704 17.1594 13.3951 17.1594Z" fill="white"/>
</svg>
