<svg width="40" height="28" viewBox="0 0 40 28" fill="none" xmlns="http://www.w3.org/2000/svg">
<path fill-rule="evenodd" clip-rule="evenodd" d="M30.8571 14.3997C26.6777 14.3997 23.5643 17.1957 23.5643 20.3354C23.5643 23.4751 26.6777 26.2711 30.8571 26.2711C35.0365 26.2711 38.15 23.4751 38.15 20.3354C38.15 17.1957 35.0365 14.3997 30.8571 14.3997ZM21.8643 20.3354C21.8643 15.9798 26.0422 12.6997 30.8571 12.6997C35.672 12.6997 39.85 15.9798 39.85 20.3354C39.85 24.691 35.672 27.9711 30.8571 27.9711C26.0422 27.9711 21.8643 24.691 21.8643 20.3354Z" fill="white"/>
<path fill-rule="evenodd" clip-rule="evenodd" d="M9.14276 14.3997C4.96334 14.3997 1.8499 17.1957 1.8499 20.3354C1.8499 23.4751 4.96334 26.2711 9.14276 26.2711C13.3222 26.2711 16.4356 23.4751 16.4356 20.3354C16.4356 17.1957 13.3222 14.3997 9.14276 14.3997ZM0.149902 20.3354C0.149902 15.9798 4.32783 12.6997 9.14276 12.6997C13.9577 12.6997 18.1356 15.9798 18.1356 20.3354C18.1356 24.691 13.9577 27.9711 9.14276 27.9711C4.32783 27.9711 0.149902 24.691 0.149902 20.3354Z" fill="white"/>
<path fill-rule="evenodd" clip-rule="evenodd" d="M6.03604 3.35393C7.22198 -0.0154297 11.7312 -0.64591 13.8893 2.17627C14.1745 2.54917 14.1034 3.08264 13.7305 3.3678C13.3576 3.65297 12.8241 3.58184 12.5389 3.20893C11.1702 1.41902 8.35615 1.87107 7.63783 3.9234L7.63244 3.93835L2.74673 17.1026C2.58339 17.5427 2.0942 17.7671 1.65409 17.6038C1.21398 17.4404 0.989613 16.9512 1.15295 16.5111L6.03604 3.35393Z" fill="white"/>
<path fill-rule="evenodd" clip-rule="evenodd" d="M32.3619 3.9234C31.6436 1.87107 28.8296 1.41902 27.4608 3.20893C27.1756 3.58184 26.6422 3.65297 26.2693 3.3678C25.8964 3.08264 25.8252 2.54917 26.1104 2.17627C28.2685 -0.64591 32.7777 -0.01543 33.9637 3.35393L38.8468 16.5111C39.0101 16.9512 38.7857 17.4404 38.3456 17.6038C37.9055 17.7671 37.4163 17.5427 37.253 17.1026L32.3673 3.93835L32.3619 3.9234Z" fill="white"/>
<path fill-rule="evenodd" clip-rule="evenodd" d="M20 19.8284C19.2062 19.8284 18.3859 20.0572 17.6659 20.4173C17.246 20.6272 16.7354 20.457 16.5255 20.0371C16.3155 19.6172 16.4857 19.1067 16.9056 18.8967C17.8141 18.4425 18.8938 18.1284 20 18.1284C21.1062 18.1284 22.1859 18.4425 23.0944 18.8967C23.5143 19.1067 23.6845 19.6172 23.4746 20.0371C23.2646 20.457 22.7541 20.6272 22.3342 20.4173C21.6141 20.0572 20.7938 19.8284 20 19.8284Z" fill="white"/>
</svg>
