<svg width="26" height="26" viewBox="0 0 26 26" fill="none" xmlns="http://www.w3.org/2000/svg">
<path fill-rule="evenodd" clip-rule="evenodd" d="M12.1538 7.85799C12.1538 7.39061 12.5327 7.01172 13.0001 7.01172H13.0147C13.4821 7.01172 13.861 7.39061 13.861 7.85799C13.861 8.32537 13.4821 8.70426 13.0147 8.70426H13.0001C12.5327 8.70426 12.1538 8.32537 12.1538 7.85799ZM10.6846 10.7964C10.6846 10.329 11.0635 9.95015 11.5308 9.95015H12.2654C13.1385 9.95015 13.8463 10.658 13.8463 11.531V17.2962H14.4693C14.9366 17.2962 15.3155 17.6751 15.3155 18.1425C15.3155 18.6099 14.9366 18.9888 14.4693 18.9888H13.7347C12.8616 18.9888 12.1538 18.2809 12.1538 17.4079V11.6427H11.5308C11.0635 11.6427 10.6846 11.2638 10.6846 10.7964Z" fill="#EC6608"/>
<path fill-rule="evenodd" clip-rule="evenodd" d="M10.8124 0.591812C12.4419 0.304484 14.112 0.340932 15.7275 0.699052L15.5444 1.52481L15.7275 0.699054C17.343 1.05719 18.872 1.73 20.2274 2.67906L19.742 3.37229L20.2274 2.67906C21.5828 3.62812 22.7381 4.83485 23.627 6.23039C24.5161 7.62593 25.1215 9.18289 25.409 10.8123L25.409 10.8124C25.6963 12.4419 25.6599 14.112 25.3017 15.7275C24.9436 17.343 24.2707 18.872 23.3216 20.2274C22.3726 21.5828 21.1658 22.7381 19.7704 23.627C18.3749 24.5161 16.8178 25.1215 15.1884 25.409L15.1883 25.409C13.5589 25.6963 11.8887 25.6599 10.2733 25.3017C8.65779 24.9436 7.12872 24.2707 5.77331 23.3216C4.4179 22.3726 3.2627 21.1658 2.37366 19.7704C1.48461 18.3749 0.879138 16.8178 0.591812 15.1884C0.304484 13.5589 0.340932 11.8887 0.699052 10.2733L0.699054 10.2733C1.05719 8.6578 1.73 7.12873 2.67906 5.77332L2.67906 5.77332C3.62814 4.41791 4.83489 3.26269 6.2304 2.37365L6.2304 2.37365C7.62592 1.48462 9.18289 0.87914 10.8124 0.591812ZM15.3612 2.35147C13.9627 2.04146 12.5169 2.00991 11.1063 2.25864C9.69569 2.50737 8.34787 3.03151 7.1398 3.80113C5.93175 4.57074 4.8871 5.57078 4.06551 6.74412C3.24393 7.91746 2.6615 9.24113 2.35147 10.6396C2.04145 12.0381 2.00991 13.4838 2.25864 14.8944C2.50737 16.3051 3.03152 17.6529 3.80112 18.8609C4.57074 20.0689 5.57078 21.1136 6.74413 21.9352C7.91747 22.7568 9.24114 23.3393 10.6396 23.6493C12.038 23.9593 13.4838 23.9908 14.8944 23.7422C16.3051 23.4933 17.653 22.9692 18.8609 22.1996L18.861 22.1996C20.0689 21.4301 21.1136 20.43 21.9352 19.2566C22.7568 18.0832 23.3393 16.7596 23.6493 15.3611C23.9593 13.9627 23.9908 12.517 23.7422 11.1063C23.4933 9.69569 22.9692 8.34786 22.1996 7.13981L22.1995 7.13976C21.4301 5.93175 20.43 4.88711 19.2566 4.06552C18.0832 3.24393 16.7596 2.6615 15.3612 2.35147Z" fill="#EC6608"/>
</svg>
