<svg width="36" height="26" viewBox="0 0 36 26" fill="none" xmlns="http://www.w3.org/2000/svg">
<g clip-path="url(#clip0_4014_31703)">
<path fill-rule="evenodd" clip-rule="evenodd" d="M3.23955 25.6405C1.73494 23.047 0.940266 20.1028 0.935568 17.1044C0.93087 14.106 1.71631 11.1594 3.21279 8.56111C4.70926 5.96288 6.86394 3.80482 9.45983 2.30427C12.0557 0.803727 15.0012 0.0136719 17.9995 0.0136719C20.9979 0.0136719 23.9434 0.803727 26.5393 2.30427C29.1352 3.80482 31.2898 5.96288 32.7863 8.56111C34.2828 11.1594 35.0682 14.106 35.0635 17.1044C35.0588 20.1028 34.2642 23.047 32.7596 25.6405M4.53555 23.5525C3.45716 21.2808 2.9711 18.7732 3.12263 16.263C3.27416 13.7529 4.05835 11.322 5.4022 9.19646C6.74604 7.07097 8.60584 5.32006 10.8084 4.10673C13.0111 2.89341 15.4849 2.25713 17.9995 2.25713C20.5142 2.25713 22.988 2.89341 25.1907 4.10673C27.3933 5.32006 29.2531 7.07097 30.5969 9.19646C31.9407 11.322 32.7249 13.7529 32.8765 16.263C33.028 18.7732 32.5419 21.2808 31.4636 23.5525" fill="#909090"/>
<path d="M29.0161 20.6729L22.6081 4.61692L18.0721 13.4729L13.3921 4.54492L6.98412 20.6729H5.32812V21.9689H14.4001V20.6729H12.6001L14.4001 15.6329L18.0721 21.9689L21.6001 15.6329L23.4001 20.6729H21.6001V21.9689H30.6001V20.6729H29.0161Z" fill="#909090"/>
</g>
<defs>
<clipPath id="clip0_4014_31703">
<rect width="36" height="26" fill="white"/>
</clipPath>
</defs>
</svg>
