<svg width="40" height="41" viewBox="0 0 40 41" fill="none" xmlns="http://www.w3.org/2000/svg">
<path fill-rule="evenodd" clip-rule="evenodd" d="M20.8089 4.15389C20.8712 3.59208 21.3772 3.18716 21.939 3.2495C25.7797 3.67561 29.3641 5.39698 32.1019 8.1291C34.8406 10.8621 36.5619 14.4416 36.9935 18.2868C37.0566 18.8486 36.6523 19.3551 36.0906 19.4181C35.5289 19.4812 35.0224 19.0769 34.9593 18.5152C34.5793 15.1304 33.0647 11.9818 30.6559 9.57805C28.2462 7.17336 25.0919 5.65886 21.7133 5.28401C21.1515 5.22168 20.7465 4.71571 20.8089 4.15389ZM8.86551 3.81836C9.3179 3.74156 9.75597 3.71015 10.2081 3.79465L10.2105 3.79512C10.9134 3.92828 11.5545 4.26096 12.0678 4.74486L12.0703 4.74727C12.4044 5.06443 12.6351 5.43742 12.8375 5.84899C13.0304 6.24148 13.2269 6.73279 13.4605 7.31681L13.4745 7.35184L14.739 10.5105C14.7541 10.5474 14.7689 10.5839 14.7837 10.6201C15.0727 11.33 15.3011 11.8908 15.3397 12.485C15.376 13.0015 15.3022 13.519 15.1245 14.0012C14.9217 14.5559 14.5496 15.0322 14.0725 15.643C14.0499 15.6719 14.0271 15.7011 14.0041 15.7307C13.9989 15.7373 13.9937 15.7438 13.9884 15.7503L9.06326 21.7525C10.2223 23.7366 11.6115 25.5365 13.2033 27.1278C15.0485 28.9727 17.174 30.5452 19.5419 31.8027L24.4531 26.8963C24.4535 26.8959 24.454 26.8954 24.4544 26.895C24.4868 26.8624 24.5188 26.8301 24.5504 26.7982C25.1632 26.18 25.6515 25.6873 26.2522 25.4085C26.7813 25.1597 27.3568 25.0526 27.9183 25.067L27.9269 25.0673C28.5889 25.0898 29.2297 25.3473 30.0533 25.6781C30.0892 25.6926 30.1255 25.7071 30.1621 25.7218C30.1626 25.722 30.163 25.7222 30.1634 25.7223L32.9815 26.8485L33.0173 26.8628C33.6013 27.0964 34.0925 27.2929 34.4849 27.4858C34.8965 27.6881 35.2695 27.9189 35.5867 28.253L35.5891 28.2555C36.073 28.7687 36.4057 29.4099 36.5388 30.1127L36.5396 30.1169C36.6235 30.5701 36.5926 31.0071 36.5155 31.46C36.4422 31.8914 36.314 32.4041 36.1616 33.0135L35.2767 36.5533C35.1628 37.009 34.7534 37.3286 34.2837 37.3286C25.1399 37.3286 17.3061 34.1242 11.756 28.5755C9.87669 26.6966 8.26617 24.556 6.95788 22.1912C6.93742 22.1586 6.91894 22.125 6.90246 22.0906C4.38211 17.4927 3 12.0541 3 6.05022C3 5.58071 3.31945 5.17141 3.77491 5.05737L7.29238 4.17667C7.91 4.02226 8.42936 3.89242 8.86551 3.81836ZM8.0229 19.7933L12.3979 14.4616C12.9811 13.7141 13.1264 13.5055 13.2021 13.2978L13.2035 13.2941C13.2811 13.084 13.3139 12.856 13.2976 12.6269L13.297 12.6187C13.2833 12.4017 13.2034 12.1686 12.8417 11.2787L12.8397 11.2738L11.5742 8.11263C11.3227 7.48404 11.1547 7.06587 11.0004 6.75205C10.8523 6.45079 10.7496 6.31635 10.6621 6.23294C10.4284 6.01303 10.1414 5.8657 9.8308 5.80658C9.7116 5.78448 9.54096 5.77998 9.20815 5.83648C8.8627 5.89513 8.42471 6.00358 7.76961 6.16736C7.76949 6.16739 7.76973 6.16733 7.76961 6.16736L5.0556 6.84689C5.15956 11.6429 6.20247 16.0056 8.0229 19.7933ZM21.4957 32.7443C25.0559 34.2934 29.0893 35.1777 33.4867 35.273L34.1665 32.554C34.3305 31.8981 34.4389 31.4617 34.4975 31.1168C34.5537 30.7866 34.5497 30.6149 34.5272 30.4916C34.4679 30.1812 34.3206 29.8946 34.1009 29.661C34.0175 29.5735 33.883 29.4708 33.5819 29.3228C33.2681 29.1686 32.8502 29.0007 32.2216 28.7492L29.4025 27.6227L29.4013 27.6222C28.3938 27.218 28.109 27.1226 27.8613 27.1133C27.5927 27.107 27.3381 27.1596 27.1217 27.2616L27.1149 27.2648C26.8944 27.3668 26.6765 27.5621 25.9059 28.3384L25.9029 28.3414L21.4957 32.7443ZM20.8218 11.1928C20.9307 10.6381 21.4686 10.2767 22.0233 10.3856C23.9625 10.7663 25.7427 11.7125 27.1367 13.1065C28.5354 14.5052 29.4826 16.2858 29.858 18.2222C29.9656 18.7772 29.6029 19.3142 29.048 19.4218C28.4931 19.5294 27.956 19.1667 27.8484 18.6118C27.551 17.0774 26.8002 15.6649 25.6892 14.5539C24.5842 13.4489 23.1713 12.6971 21.629 12.3943C21.0743 12.2854 20.7129 11.7475 20.8218 11.1928Z" fill="white"/>
</svg>
