<svg width="40" height="41" viewBox="0 0 40 41" fill="none" xmlns="http://www.w3.org/2000/svg">
<path d="M36.7258 35.1867L28.7742 27.3722C31.1048 24.7674 32.3387 21.477 32.3387 17.9125C32.3387 9.82381 25.7581 3.24316 17.6694 3.24316C9.58065 3.24316 3 9.82381 3 17.9125C3 26.0012 9.58065 32.5819 17.6694 32.5819C21.0968 32.5819 24.1129 31.4851 26.9919 29.1545L34.9436 36.969C35.2177 37.2432 35.4919 37.2432 35.7661 37.2432C36.0403 37.2432 36.3145 37.1061 36.5887 36.8319C36.7258 36.6948 36.8629 36.5577 36.8629 36.2835C37.1371 36.0093 37 35.598 36.7258 35.1867ZM29.871 17.9125C29.871 24.7674 24.3871 30.2512 17.6694 30.2512C10.9516 30.2512 5.46774 24.7674 5.46774 18.0496C5.46774 11.1948 10.9516 5.71091 17.6694 5.71091C24.3871 5.71091 29.871 11.0577 29.871 17.9125Z" fill="white"/>
</svg>
