<svg width="18" height="18" viewBox="0 0 18 18" fill="none" xmlns="http://www.w3.org/2000/svg">
<path d="M6.88968 3.5869C7.94521 1.69336 8.47296 0.746582 9.26205 0.746582C10.0511 0.746582 10.5789 1.69335 11.6344 3.58689L11.9075 4.07677C12.2075 4.61486 12.3574 4.88391 12.5913 5.06142C12.8251 5.23894 13.1163 5.30483 13.6988 5.43662L14.2291 5.55661C16.2788 6.02038 17.3037 6.25226 17.5475 7.03636C17.7914 7.82041 17.0927 8.6375 15.6953 10.2715L15.3338 10.6942C14.9367 11.1586 14.7381 11.3907 14.6488 11.678C14.5595 11.9652 14.5895 12.275 14.6495 12.8946L14.7042 13.4586C14.9155 15.6387 15.0211 16.7288 14.3828 17.2134C13.7444 17.698 12.7848 17.2562 10.8656 16.3726L10.3691 16.1439C9.8238 15.8928 9.55113 15.7672 9.26205 15.7672C8.97296 15.7672 8.7003 15.8928 8.15496 16.1439L7.65846 16.3726C5.73928 17.2562 4.7797 17.698 4.14134 17.2134C3.50298 16.7288 3.60861 15.6387 3.81988 13.4586L3.87453 12.8946C3.93457 12.275 3.96459 11.9652 3.87526 11.678C3.78595 11.3907 3.5874 11.1586 3.19031 10.6942L2.8288 10.2715C1.43142 8.6375 0.732729 7.82041 0.976563 7.03636C1.2204 6.25226 2.24526 6.02038 4.295 5.55661L4.82529 5.43662C5.40775 5.30483 5.69899 5.23894 5.93283 5.06142C6.16667 4.88391 6.31665 4.61486 6.6166 4.07677L6.88968 3.5869Z" fill="#FEC73A"/>
</svg>
