<svg width="26" height="27" viewBox="0 0 26 27" fill="none" xmlns="http://www.w3.org/2000/svg">
<path d="M13.3809 0.243164C17.3774 0.243164 20.6172 3.50606 20.6172 7.53104C20.6172 10.2818 19.104 12.6766 16.8702 13.9172C21.704 15.5456 25.1875 20.1426 25.1875 25.559C25.1875 25.559 25.1875 26.2432 24.4258 26.2432C23.6641 26.2432 23.6641 25.559 23.6641 25.559C23.6641 19.6274 18.8896 14.8189 13 14.8189C7.1104 14.8189 2.33594 19.6274 2.33594 25.559C2.33594 25.559 2.33594 26.2432 1.57422 26.2432C0.8125 26.2432 0.8125 25.559 0.8125 25.559C0.8125 19.959 4.53608 15.2349 9.62573 13.7611C7.53855 12.4836 6.14453 10.1713 6.14453 7.53104C6.14453 3.50606 9.38434 0.243164 13.3809 0.243164ZM13.3809 1.77745C10.2257 1.77745 7.66797 4.35342 7.66797 7.53104C7.66797 10.7087 10.2257 13.2846 13.3809 13.2846C16.536 13.2846 19.0938 10.7087 19.0938 7.53104C19.0938 4.35342 16.536 1.77745 13.3809 1.77745Z" fill="white"/>
</svg>
