<svg width="32" height="33" viewBox="0 0 32 33" fill="none" xmlns="http://www.w3.org/2000/svg">
<path fill-rule="evenodd" clip-rule="evenodd" d="M15.6737 5.41357C14.3485 5.41804 9.27952 5.45551 5.73861 5.72049C5.16485 5.79097 3.91465 5.79632 2.79906 7.00525C1.91901 7.92511 1.63342 10.0164 1.63342 10.0164C1.63342 10.0164 1.36509 12.2657 1.3418 14.6112V17.5412C1.36509 19.8868 1.63342 22.136 1.63342 22.136C1.63342 22.136 1.91901 24.2265 2.79906 25.1472C3.91465 26.3561 5.38141 26.3177 6.03454 26.4436C8.18118 26.6568 14.7462 26.7353 15.8489 26.7469H16.3942C17.8065 26.7389 22.7857 26.6934 26.2766 26.432C26.8503 26.3614 28.1006 26.3561 29.2162 25.1472C30.0962 24.2265 30.3818 22.136 30.3818 22.136C30.3818 22.136 30.6751 19.6816 30.6751 17.2272V14.9253C30.6751 12.47 30.3818 10.0164 30.3818 10.0164C30.3818 10.0164 30.0962 7.92511 29.2162 7.00525C28.1006 5.79632 26.8503 5.79097 26.2766 5.72049C22.7357 5.45551 17.6667 5.41804 16.3406 5.41357H15.6737ZM12.9775 11.4937L20.9049 15.771L12.9792 20.02L12.9775 11.4937Z" fill="white"/>
</svg>
