<svg width="32" height="33" viewBox="0 0 32 33" fill="none" xmlns="http://www.w3.org/2000/svg">
<path d="M18.5798 18.6513C16.4846 20.8132 16.3322 23.5085 16.1512 29.4132C21.656 29.4132 25.456 29.3942 27.4179 27.4894C29.3227 25.5275 29.3417 21.5466 29.3417 16.2228C23.437 16.4132 20.7417 16.5561 18.5798 18.6513ZM2.67505 16.2228C2.67505 21.5466 2.6941 25.5275 4.59886 27.4894C6.56076 29.3942 10.3608 29.4132 15.8655 29.4132C15.675 23.5085 15.5322 20.8132 13.437 18.6513C11.275 16.5561 8.57981 16.4037 2.67505 16.2228ZM15.8655 2.74658C10.3703 2.74658 6.56076 2.76563 4.59886 4.67039C2.6941 6.6323 2.67505 10.6132 2.67505 15.9371C8.57981 15.7466 11.275 15.6037 13.437 13.5085C15.5322 11.3466 15.6846 8.65134 15.8655 2.74658ZM18.5798 13.5085C16.4846 11.3466 16.3322 8.65134 16.1512 2.74658C21.656 2.74658 25.456 2.76563 27.4179 4.67039C29.3227 6.6323 29.3417 10.6132 29.3417 15.9371C23.437 15.7466 20.7417 15.6037 18.5798 13.5085Z" fill="white"/>
</svg>
