<svg width="932" height="480" viewBox="0 0 932 480" fill="none" xmlns="http://www.w3.org/2000/svg">
<path d="M188.81 303.666H226V331.326H188.81V400H159.249V331.326H0V323.696L180.705 80H188.81V303.666ZM159.726 303.666V185.395C159.726 173.949 159.726 163.934 160.679 151.058C153.527 161.073 146.852 169.18 140.654 178.241L66.7511 278.867C60.5527 287.452 54.3544 295.559 47.2025 303.666H82.0084H159.726Z" fill="white"/>
<path d="M706 0H226V480H706V0Z" fill="#050505"/>
<path d="M636.832 169.874C627.616 147.41 613.888 126.77 596.752 109.49C579.568 92.2101 559.024 78.3381 536.56 68.9781C515.008 59.9541 491.776 55.1061 468.4 54.6261V54.5781H466.528C466.432 54.5781 466.384 54.5781 466.288 54.5781C466.24 54.5781 466.193 54.5781 466.145 54.5781C364.145 54.7701 281.248 137.81 281.248 239.81V240.098C281.248 342.098 364.096 425.09 466 425.33C465.952 425.33 465.904 425.33 465.856 425.33H466.145C466.193 425.33 466.24 425.33 466.24 425.33C466.336 425.33 466.432 425.33 466.48 425.33H468.352V425.282C491.488 424.946 514.528 420.29 535.936 411.506C558.304 402.338 578.848 388.706 596.032 371.618C613.216 354.53 627.04 334.082 636.352 311.714C645.712 289.346 650.56 265.106 650.656 240.818C650.8 216.674 646.096 192.338 636.832 169.874ZM468.4 111.362C484.336 111.698 500.176 114.962 514.96 121.01C530.704 127.442 545.104 136.994 557.2 148.994C569.296 160.994 578.992 175.346 585.568 191.042C592.192 206.786 595.6 223.826 595.648 240.866C595.696 257.954 592.432 275.042 585.952 290.834C579.472 306.674 569.824 321.17 557.776 333.314C545.728 345.458 531.232 355.25 515.44 361.874C500.608 368.114 484.576 371.522 468.4 371.954V345.314C481.024 344.978 493.648 342.386 505.36 337.586C518.032 332.402 529.696 324.674 539.44 315.026C549.184 305.33 557.008 293.762 562.336 281.042C567.664 268.37 570.448 254.642 570.496 240.866C570.544 227.09 567.904 213.314 562.672 200.546C557.44 187.778 549.664 176.018 539.968 166.226C530.224 156.434 518.56 148.514 505.792 143.186C493.984 138.194 481.264 135.458 468.4 135.026V111.362ZM468.4 137.906C480.88 138.242 493.265 140.786 504.785 145.538C517.313 150.626 528.785 158.258 538.385 167.762C547.985 177.314 555.713 188.738 560.945 201.266C566.225 213.794 568.96 227.33 569.008 240.914C569.056 254.498 566.464 268.13 561.28 280.706C556.144 293.282 548.465 304.898 538.865 314.594C529.265 324.242 517.744 332.066 505.168 337.298C493.552 342.194 480.976 344.882 468.352 345.362V318.722C477.52 318.386 486.592 316.466 495.088 313.01C504.544 309.17 513.232 303.41 520.528 296.258C527.776 289.058 533.632 280.418 537.616 270.962C541.6 261.506 543.664 251.282 543.76 241.01C543.808 230.738 541.84 220.466 537.952 210.914C534.064 201.362 528.256 192.626 521.008 185.282C513.76 177.938 505.024 172.034 495.472 168.05C486.88 164.45 477.664 162.386 468.352 161.954V137.906H468.4ZM468.4 217.586C473.488 218.21 478.384 220.514 482.128 224.114C486.592 228.434 489.28 234.626 489.328 240.914C489.424 247.202 486.929 253.538 482.465 258.098C478.769 261.938 473.728 264.482 468.4 265.202V217.586ZM482.848 258.434C487.504 253.922 490.288 247.49 490.336 240.914C490.432 234.338 487.841 227.762 483.185 223.058C479.297 219.026 474.016 216.386 468.4 215.618V190.946C480.448 191.618 492.256 196.754 500.848 205.346C510.304 214.562 515.824 227.666 515.872 240.914C516.016 254.21 510.688 267.41 501.232 276.914C492.64 285.698 480.688 291.17 468.352 291.986V265.298C473.776 264.674 478.912 262.274 482.848 258.434ZM501.712 277.298C511.36 267.842 517.024 254.498 517.072 240.914C517.216 227.378 511.745 213.794 502.145 204.146C493.313 195.122 481.072 189.554 468.448 188.738V164.45C477.424 164.786 486.353 166.658 494.705 170.066C503.969 173.858 512.56 179.522 519.712 186.578C526.864 193.634 532.624 202.178 536.512 211.442C540.448 220.706 542.464 230.786 542.56 240.914C542.608 251.042 540.688 261.17 536.848 270.53C533.008 279.89 527.344 288.53 520.192 295.73C513.04 302.93 504.448 308.738 495.088 312.674C486.64 316.226 477.616 318.242 468.448 318.674V292.034C480.784 291.362 492.832 286.082 501.712 277.298ZM468.4 372.05C484.528 371.714 500.609 368.45 515.585 362.306C531.521 355.778 546.112 346.082 558.352 333.938C570.592 321.794 580.384 307.25 587.056 291.362C593.728 275.426 597.184 258.194 597.28 240.914C597.328 223.634 594.016 206.354 587.44 190.37C580.864 174.386 571.12 159.65 558.928 147.362C546.736 135.074 532.097 125.186 516.065 118.466C500.993 112.13 484.768 108.674 468.448 108.242V84.8661C487.84 85.2021 507.185 89.0901 525.185 96.4821C544.145 104.258 561.521 115.826 576.065 130.226C590.609 144.674 602.272 161.954 610.192 180.914C618.16 199.826 622.24 220.37 622.336 240.914C622.432 261.458 618.449 282.05 610.625 301.058C602.801 320.114 591.232 337.586 576.688 352.226C562.192 366.866 544.768 378.578 525.712 386.546C507.616 394.13 488.128 398.258 468.496 398.69V372.05H468.4ZM464.656 421.634C365.44 420.626 284.992 339.602 284.992 240.098V239.906L283.12 239.858H284.992C284.992 140.402 365.392 59.3301 464.656 58.3701V421.634ZM635.105 311.234C625.985 333.506 612.4 353.906 595.408 370.994C578.416 388.082 558.064 401.81 535.792 411.122C514.48 420.05 491.488 424.85 468.4 425.282V398.642C488.032 398.306 507.568 394.37 525.808 386.882C544.96 379.058 562.528 367.346 577.216 352.754C591.904 338.162 603.712 320.642 611.728 301.49C619.744 282.338 623.92 261.602 623.968 240.818C624.016 220.034 620.032 199.25 612.112 180.002C604.24 160.754 592.48 143.09 577.792 128.306C563.104 113.522 545.488 101.666 526.24 93.6021C507.952 85.9221 488.224 81.7941 468.352 81.3621V58.2741C491.2 58.6101 514.048 63.1701 535.216 71.9061C557.344 80.9781 577.696 94.5141 594.688 111.41C611.728 128.306 625.361 148.562 634.625 170.69C643.889 192.818 648.689 216.818 648.785 240.818C648.929 264.962 644.273 289.01 635.105 311.234Z" fill="white"/>
<path d="M894.81 303.666H932V331.326H894.81V400H865.249V331.326H706V323.696L886.705 80H894.81V303.666ZM865.726 303.666V185.395C865.726 173.949 865.726 163.934 866.679 151.058C859.527 161.073 852.852 169.18 846.654 178.241L772.751 278.867C766.553 287.452 760.354 295.559 753.203 303.666H788.008H865.726Z" fill="white"/>
</svg>
