<svg width="558" height="218" viewBox="0 0 558 218" fill="none" xmlns="http://www.w3.org/2000/svg">
<path d="M142.314 8.21482C154.852 13.6141 166.342 21.6419 175.94 31.6944C181.821 37.8396 186.958 44.6952 191.283 52.1191C195.474 44.9438 200.442 38.3014 206.086 32.3338C215.616 22.2458 227.039 14.1469 239.543 8.67661C252.014 3.17081 265.566 0.329103 279.118 0.293582C292.67 0.25806 306.222 2.9932 318.794 8.42795C331.332 13.8272 342.857 21.8905 352.522 31.9431C358.031 37.6975 362.898 44.0914 367.055 50.9825C371.076 44.269 375.808 38.0527 381.114 32.4048C390.644 22.3168 402.067 14.2535 414.537 8.74764C427.008 3.24185 440.526 0.400172 454.078 0.36465C467.597 0.329128 481.182 3.06427 493.721 8.49902C506.259 13.8983 517.783 21.9616 527.381 32.0141C537.013 42.0666 544.752 54.1439 549.99 67.3223C555.026 79.9324 557.73 93.5725 557.966 107.284L558 107.284L558 108.385C558 108.42 558 108.456 558 108.527C558 108.563 558 108.598 558 108.598C557.899 168.38 511.565 216.974 454.653 216.974L454.484 216.974C417.782 216.974 385.507 196.762 367.156 166.356C348.805 196.797 316.462 217.08 279.693 217.08L279.524 217.08C242.112 217.08 209.263 196.087 191.114 164.722C186.991 171.719 182.125 178.22 176.616 184.045C167.12 194.098 155.697 202.197 143.26 207.667C130.823 213.173 117.305 216.014 103.786 216.05C90.2682 216.085 76.7499 213.35 64.2117 207.916C51.6735 202.516 40.183 194.489 30.585 184.436C20.9532 174.383 13.2479 162.342 8.00959 149.199C2.97406 136.589 0.27039 122.949 0.033818 109.237L4.4979e-06 109.237L4.58975e-06 107.035C0.16895 93.4304 2.73749 79.8613 7.67164 67.2512C12.7748 54.1439 20.3787 42.1377 29.8753 32.0852C39.3718 22.0326 50.7949 13.9338 63.2317 8.46348C75.6685 2.95767 89.1867 0.115961 102.705 0.0804387C116.257 0.0449169 129.809 2.78006 142.314 8.21482ZM351.407 33.0797C341.978 23.0983 330.657 15.0704 318.287 9.63569C305.918 4.20092 292.535 1.35923 279.118 1.3237C265.701 1.28818 252.251 3.98781 239.848 9.38704C227.411 14.7507 216.022 22.7075 206.458 32.689C200.746 38.6211 195.744 45.2991 191.52 52.4744C194.19 57.0921 196.555 61.923 198.549 66.9315C202.875 77.7655 205.478 89.31 206.289 101.032C206.998 93.6791 208.688 86.3972 211.392 79.5416C215.042 70.1995 220.449 61.6033 227.208 54.4636C233.967 47.2883 242.112 41.5338 251 37.6265C259.889 33.7191 269.52 31.6589 279.152 31.6234C288.784 31.5879 298.449 33.5415 307.371 37.4133C316.293 41.2497 324.506 47.0041 331.4 54.1439C338.261 61.3192 343.803 69.9153 347.521 79.2929C349.548 84.3725 351.035 89.7007 352.016 95.0999C353.165 85.6868 355.463 76.4157 358.91 67.6065C360.938 62.4559 363.337 57.4474 366.075 52.6875C361.884 45.5833 356.983 38.9763 351.407 33.0797ZM353.266 109.415C353.435 128.632 358.504 146.606 367.19 162.129C375.841 146.641 380.911 128.632 381.08 109.415L353.266 109.415ZM373.442 67.9617C371.414 62.8111 369.015 57.8026 366.244 53.0072C363.506 57.696 361.107 62.598 359.113 67.6775C355.598 76.5223 353.232 85.8289 352.049 95.3486C352.725 99.2559 353.131 103.234 353.232 107.213L366.075 107.213C366.244 95.7038 368.474 84.2304 372.631 73.574C373.104 72.3308 373.645 71.0875 374.185 69.8443C373.915 69.2404 373.678 68.6011 373.442 67.9617ZM526.3 107.213C526.131 97.8706 524.306 88.564 520.926 79.8968C517.344 70.6613 512.004 62.2072 505.313 55.1385C498.621 48.0697 490.611 42.3508 481.858 38.5145C473.071 34.6427 463.575 32.6535 454.078 32.5824C444.548 32.5469 435.018 34.4651 426.197 38.2658C417.376 42.0666 409.265 47.7145 402.506 54.7833C395.713 61.852 390.272 70.3416 386.588 79.6126C384.662 84.4791 383.209 89.5586 382.263 94.7447C382.803 98.8652 383.074 103.021 383.175 107.177L383.209 107.177L395.848 107.177C396.017 99.7532 397.471 92.3648 400.174 85.5092C403.081 78.0852 407.373 71.2651 412.746 65.5462C418.154 59.8273 424.608 55.245 431.706 52.1192C438.769 48.9933 446.441 47.3593 454.112 47.3238C461.784 47.2883 469.489 48.8512 476.62 51.906C483.751 54.9609 490.273 59.5076 495.748 65.2265C501.223 70.9454 505.617 77.7655 508.591 85.2605C511.362 92.1872 512.883 99.6467 513.119 107.177L526.3 107.177L526.3 107.213ZM292.163 107.213C291.825 104.229 290.541 101.352 288.514 99.1494C286.114 96.5208 282.633 94.9578 279.152 94.9223C275.637 94.8513 272.123 96.3432 269.554 98.9362C267.425 101.103 266.005 104.051 265.566 107.177L292.163 107.177L292.163 107.213ZM265.532 107.213C265.87 104.087 267.222 101.032 269.351 98.7586C271.886 96.0235 275.468 94.3895 279.152 94.354C282.802 94.2829 286.486 95.8104 289.122 98.5455C291.386 100.819 292.839 103.945 293.279 107.213L321.836 107.213C321.667 101.956 320.619 96.6984 318.693 91.7965C316.564 86.3617 313.421 81.3177 309.467 77.1261C305.513 72.9346 300.781 69.5601 295.577 67.2512C290.406 64.9424 284.762 63.7701 279.118 63.6991C273.474 63.6636 267.831 64.8003 262.592 67.0736C257.354 69.3115 252.555 72.6505 248.499 76.842C244.478 81.0335 241.233 86.0775 239.037 91.5478C237.043 96.4852 235.927 101.813 235.691 107.177L265.532 107.177L265.532 107.213ZM381.012 105.188C380.978 105.863 380.945 106.538 380.945 107.213L381.08 107.213C381.046 106.538 381.046 105.863 381.012 105.188ZM511.497 107.213C511.294 99.8953 509.909 92.649 507.239 85.8644C504.4 78.547 500.142 71.798 494.836 66.1501C489.496 60.5022 483.143 55.991 476.147 52.9006C469.185 49.8103 461.615 48.2118 454.045 48.1763C446.474 48.1408 438.87 49.6682 431.841 52.723C424.811 55.7423 418.356 60.218 412.949 65.8659C407.575 71.5138 403.216 78.2628 400.276 85.6157C397.538 92.4358 396.051 99.7887 395.781 107.213L410.651 107.213C410.82 101.849 411.901 96.5208 413.828 91.5478C415.957 86.0065 419.168 80.9269 423.189 76.6289C427.211 72.3663 432.044 68.9207 437.316 66.6119C442.588 64.2675 448.299 63.0597 454.045 63.0242C459.756 62.9887 465.501 64.1609 470.841 66.4343C476.147 68.7076 481.047 72.1177 485.137 76.3447C489.226 80.6073 492.504 85.7223 494.768 91.2992C496.762 96.3432 497.911 101.742 498.148 107.213L511.497 107.213ZM467.09 107.213C466.752 104.229 465.467 101.352 463.44 99.1849C461.04 96.5563 457.593 94.9934 454.078 94.9579C450.564 94.8868 447.049 96.3787 444.514 98.9718C442.385 101.139 440.966 104.087 440.526 107.213L467.09 107.213ZM444.278 98.7586C446.779 96.0235 450.395 94.3895 454.045 94.354C457.694 94.2829 461.378 95.8104 464.014 98.5455C466.279 100.819 467.732 103.945 468.171 107.213L481.926 107.213C481.554 100.144 478.682 93.2173 473.916 88.1733C468.779 82.632 461.48 79.3995 454.078 79.364C446.677 79.293 439.276 82.4188 434.004 87.9246C429.103 92.9687 426.062 99.9664 425.589 107.213L440.492 107.213C440.83 104.087 442.149 101.032 444.278 98.7586ZM433.767 87.7115C439.039 82.0636 446.508 78.7246 454.078 78.7246C461.649 78.6536 469.185 81.8505 474.592 87.4984C479.628 92.6845 482.737 99.8598 483.176 107.248L496.695 107.248C496.526 101.991 495.478 96.7339 493.585 91.8675C491.456 86.4327 488.313 81.4243 484.359 77.1972C480.405 73.0057 475.674 69.6312 470.469 67.3578C465.299 65.0489 459.688 63.8767 454.045 63.8412C448.401 63.8057 442.757 64.9423 437.519 67.2157C432.28 69.4535 427.481 72.7926 423.459 76.9841C419.438 81.1756 416.193 86.2196 413.997 91.6899C412.003 96.6273 410.888 101.956 410.651 107.319L425.487 107.319C425.927 99.9663 428.867 92.8976 433.767 87.7115ZM206.525 107.035L206.559 107.213L235.725 107.213C235.894 101.849 236.975 96.4853 238.901 91.5123C241.031 85.9709 244.241 80.8559 248.263 76.5933C252.285 72.3308 257.117 68.8852 262.389 66.5763C267.662 64.2319 273.373 63.0242 279.118 62.9887C284.864 62.9532 290.609 64.1254 295.915 66.3987C301.221 68.6721 306.121 72.0821 310.21 76.3447C314.3 80.6072 317.611 85.7223 319.842 91.3347C321.87 96.3787 322.985 101.778 323.222 107.248L351.137 107.248C351.137 105.969 351.171 104.691 351.238 103.412C350.697 95.3841 348.94 87.3918 346.034 79.9323C342.451 70.6968 337.112 62.2427 330.386 55.1385C323.695 48.0342 315.651 42.3508 306.898 38.479C298.111 34.6072 288.615 32.618 279.084 32.5469C269.554 32.5114 259.99 34.4296 251.169 38.2658C242.349 42.0666 234.238 47.7145 227.445 54.8188C220.652 61.8875 215.211 70.3771 211.493 79.6837C208.722 86.6103 206.965 93.9632 206.221 101.458C206.39 103.27 206.491 105.152 206.525 107.035ZM351.204 107.213L351.475 107.213C351.441 106.076 351.407 104.904 351.34 103.767C351.238 104.939 351.204 106.076 351.204 107.213ZM372.834 73.6806C368.609 84.3015 366.311 95.7038 366.075 107.213L380.945 107.213C380.945 106.396 380.978 105.579 381.012 104.762C380.607 92.9687 378.342 81.2466 374.321 70.1995C373.78 71.3717 373.307 72.5084 372.834 73.6806ZM382.195 94.425C383.107 89.3455 384.493 84.337 386.386 79.5416C390.036 70.1995 395.443 61.6389 402.202 54.4636C408.961 47.2883 417.072 41.5338 425.96 37.6265C434.849 33.7191 444.447 31.6944 454.078 31.6234C463.71 31.5879 473.342 33.5415 482.298 37.4134C491.22 41.2497 499.432 46.9686 506.293 54.1439C513.153 61.2837 518.662 69.8798 522.413 79.2574C525.928 88.1022 527.854 97.622 528.125 107.177L541.17 107.177C541.001 95.8104 538.804 84.4791 534.681 73.9292C530.355 62.8111 523.9 52.652 515.857 44.0914C507.813 35.5662 498.148 28.7106 487.604 24.0929C477.059 19.4396 465.603 17.0241 454.146 16.9886C442.689 16.9531 431.199 19.262 420.587 23.8442C409.975 28.4264 400.208 35.211 392.063 43.7361C385.338 50.7338 379.728 58.9037 375.47 67.8196C378.714 76.3802 380.978 85.3316 382.195 94.425ZM204.43 107.035C204.261 93.5725 201.726 80.1455 196.826 67.6775C195.035 63.0597 192.906 58.5485 190.472 54.2504C188.039 58.5485 185.876 63.0597 184.051 67.6775C179.083 80.1099 176.413 93.537 176.143 107.035L204.43 107.035ZM548.267 67.9972C543.197 55.0319 535.661 43.0968 526.232 33.1508C516.803 23.1693 505.515 15.177 493.146 9.74226C480.811 4.30751 467.428 1.50132 454.011 1.43028C440.594 1.39475 427.177 4.09435 414.774 9.45808C402.371 14.8218 390.982 22.7786 381.418 32.7245C376.044 38.3369 371.279 44.5531 367.19 51.2667C370.231 56.3462 372.867 61.6744 375.064 67.1802C375.098 67.2512 375.132 67.3578 375.166 67.4289C379.356 58.5841 384.933 50.4141 391.59 43.3809C399.735 34.7492 409.502 27.8226 420.181 23.1338C430.861 18.4094 442.419 15.994 454.011 15.9585C465.603 15.923 477.195 18.2674 487.942 22.9207C498.689 27.5384 508.523 34.4296 516.769 43.0257C525.015 51.6574 531.639 61.9586 536.134 73.2543C540.426 83.9818 542.724 95.5617 542.961 107.177L555.837 107.177C555.702 93.8212 553.133 80.4296 548.267 67.9972ZM454.518 214.736L454.619 214.736L454.653 215.837L454.653 214.736C510.145 214.736 555.33 167.599 555.905 109.415L383.141 109.415C382.939 129.449 377.599 148.204 368.373 164.26C386.25 194.524 418.187 214.736 454.518 214.736ZM279.558 214.842L279.659 214.842L279.693 215.943L279.693 214.842C316.091 214.842 348.061 194.595 365.939 164.224C356.713 148.169 351.34 129.414 351.171 109.379L206.525 109.379C206.322 122.878 203.754 136.34 198.854 148.844C196.995 153.568 194.832 158.15 192.365 162.555C210.04 193.849 242.518 214.842 279.558 214.842ZM206.491 109.415L178.204 109.415C178.373 128.668 183.443 146.677 192.162 162.2C194.595 157.866 196.758 153.39 198.617 148.737C203.551 136.34 206.221 122.913 206.491 109.415ZM9.66553 148.453C14.7349 161.418 22.2376 173.318 31.6666 183.264C41.0618 193.21 52.3494 201.238 64.6848 206.637C77.0202 212.072 90.3696 214.878 103.753 214.913C117.136 214.949 130.553 212.249 142.922 206.885C155.325 201.522 166.714 193.6 176.21 183.655C181.787 177.829 186.721 171.329 190.878 164.331C181.618 148.204 176.244 129.378 176.075 109.237L2.02771 109.237C2.23047 122.629 4.79895 136.02 9.66553 148.453ZM63.5696 9.20942C51.1666 14.5731 39.7775 22.4944 30.281 32.4404C20.7506 42.3863 13.1127 54.3215 7.94196 67.3578C2.94019 79.8968 0.270391 93.4304 0.0338181 107.035L176.143 107.035C176.346 93.537 178.948 80.0744 183.848 67.5709C185.673 62.8466 187.87 58.2643 190.303 53.8597C186.011 46.2226 180.807 39.1539 174.859 32.8666C165.463 22.9207 154.176 14.8928 141.84 9.49359C129.505 4.05883 116.156 1.25265 102.773 1.21714C89.3557 1.1461 75.9389 3.84571 63.5696 9.20942Z" fill="white" fill-opacity="0.15"/>
</svg>
