<svg width="1258" height="277" viewBox="0 0 1258 277" fill="none" xmlns="http://www.w3.org/2000/svg">
<path d="M258.4 138.04C258.4 192.78 219.3 233.92 148.58 240.38V276.08H110.16V240.38C39.78 233.92 0 192.78 0 138.04C0 82.96 39.78 42.16 110.16 35.7V0H148.58V35.7C219.3 42.16 258.4 82.96 258.4 138.04ZM40.12 138.04C40.12 174.08 64.6 199.58 111.18 204.68V71.06C64.6 76.16 40.12 102 40.12 138.04ZM147.56 204.68C194.14 199.58 218.28 174.08 218.28 138.04C218.28 102 194.14 76.16 147.56 71.06V204.68Z" fill="white" fill-opacity="0.1"/>
<path d="M403.76 258.06C333.04 258.06 283.4 205.36 283.4 137.7C283.4 68.34 333.04 18.02 403.76 18.02C475.16 18.02 524.12 68.34 524.12 137.7C524.12 205.36 475.16 258.06 403.76 258.06ZM403.76 221.68C452.38 221.68 483.32 184.28 483.32 137.7C483.32 89.76 452.38 54.4 403.76 54.4C355.48 54.4 324.54 89.76 324.54 137.7C324.54 184.28 355.48 221.68 403.76 221.68Z" fill="white" fill-opacity="0.1"/>
<path d="M549.12 253.64V22.44H637.86C687.5 22.44 715.38 58.82 715.38 96.9C715.38 134.64 688.18 169.32 637.18 169.32H589.24V253.64H549.12ZM589.24 134.98H632.76C662 134.98 674.92 116.28 674.92 96.56C674.92 74.8 659.28 57.46 633.78 57.46H589.24V134.98Z" fill="white" fill-opacity="0.1"/>
<path d="M967.84 21.59L1001.84 254.49H962.4L944.04 129.37C943.02 121.21 942 113.73 941.32 105.91C937.24 113.39 932.48 120.53 927.72 127.67L875.02 207.91H866.86L814.5 127.67C809.4 120.53 804.64 113.05 800.22 105.23C799.88 114.07 798.52 121.55 797.5 129.71L779.82 254.49H740.38L774.38 21.59H786.28L855.98 128.35C861.08 136.17 866.18 144.33 870.94 152.49C875.7 144.33 880.8 136.17 885.9 128.35L955.94 21.59H967.84Z" fill="white" fill-opacity="0.1"/>
<path d="M1148.22 21.76L1257.02 253.3V254.32H1215.2L1196.16 212.5H1088.04L1069 254.32H1026.84V253.64L1135.98 21.76H1148.22ZM1142.1 86.36C1136.66 101.32 1131.9 113.22 1126.46 125.8L1101.3 180.88H1182.9L1157.74 125.8C1152.3 113.56 1147.54 101.32 1142.1 86.36Z" fill="white" fill-opacity="0.1"/>
</svg>
