<svg width="406" height="407" viewBox="0 0 406 407" fill="none" xmlns="http://www.w3.org/2000/svg">
<path opacity="0.1" d="M346.54 60.2455C327.655 41.3067 305.015 26.0607 280.258 15.7736C256.454 5.80298 230.692 0.474789 204.878 0.0527536V0H203.397H203.449H203.132H203.079H202.868H202.815H200.752V0.0527536C175.255 0.36928 149.863 5.48646 126.27 15.1933C101.672 25.2693 79.0317 40.2516 60.1469 58.9794C41.2092 77.7072 26.0276 100.181 15.7653 124.711C5.45004 149.242 0.107385 175.83 0.00158732 202.524C-0.10421 229.165 5.07954 255.806 15.289 280.495C25.4455 305.184 40.5218 327.816 59.4066 346.754C78.2914 365.693 100.932 380.939 125.688 391.226C149.44 401.144 175.043 406.472 200.804 406.947V407H204.93V406.947C230.533 406.631 256.031 401.514 279.729 391.807C304.327 381.731 326.968 366.748 345.853 348.021C364.79 329.293 379.972 306.819 390.234 282.289C400.549 257.758 405.893 231.17 405.998 204.476C406.104 177.835 400.92 151.194 390.711 126.505C380.501 101.816 365.425 79.1843 346.54 60.2455ZM127.011 387.85C102.678 377.88 80.3014 363.056 61.5753 344.539C42.8491 326.022 27.8262 303.76 17.6167 279.44C7.40729 255.173 2.11722 228.796 2.06432 202.471C1.95853 176.094 7.09 149.664 17.1936 125.292C27.2444 100.866 42.1616 78.4457 60.8877 59.6652C79.5609 40.8846 101.99 25.7969 126.482 15.6153C149.969 5.80298 175.307 0.527543 200.804 0.0527536V402.832C175.572 402.516 150.392 397.451 127.011 387.85ZM388.753 281.656C378.702 306.081 363.785 328.501 345.059 347.282C326.386 366.063 303.957 381.15 279.465 391.332C255.925 401.197 230.481 406.472 204.878 406.894V4.11484C230.163 4.43136 255.449 9.44303 278.883 19.0971C303.216 29.0677 325.592 43.8916 344.318 62.4084C363.044 80.9252 378.068 103.188 388.277 127.507C398.487 151.774 403.776 178.152 403.829 204.476C403.935 230.853 398.857 257.283 388.753 281.656Z" fill="white"/>
</svg>
