<svg width="232" height="81" viewBox="0 0 232 81" fill="none" xmlns="http://www.w3.org/2000/svg">
<g clip-path="url(#clip0_4001_3473)">
<mask id="mask0_4001_3473" style="mask-type:luminance" maskUnits="userSpaceOnUse" x="0" y="-31" width="231" height="131">
<path d="M230.983 -30.7012H0.983398V99.0695H230.983V-30.7012Z" fill="white"/>
</mask>
<g mask="url(#mask0_4001_3473)">
<path d="M58.9267 14.8076C53.5672 9.4317 46.6145 6.2379 39.1359 5.66715V-5.88965L34.2675 3.44182V66.1751C19.3631 64.9303 7.6127 52.3666 7.6127 37.0993C7.6127 23.5383 16.8834 12.11 29.4004 8.85254V6.42655C23.7966 7.7579 18.6527 10.6201 14.478 14.8076C8.54109 20.7614 5.27197 28.6786 5.27197 37.0993C5.27197 45.52 8.54109 53.4372 14.478 59.3922C19.8374 64.7681 26.7901 67.9619 34.2687 68.5326V74.2581H39.1371V8.02465C54.0428 9.26949 65.7931 21.8332 65.7931 37.1005C65.7931 50.6615 56.5224 62.0897 44.0054 65.3484V67.7744C49.6093 66.4431 54.7531 63.5809 58.9279 59.3934C64.8647 53.4384 68.1339 45.5224 68.1339 37.1005C68.1339 28.6786 64.8635 20.7614 58.9267 14.8076Z" fill="#EC6608"/>
<path d="M123.643 9.69971C116.454 9.69971 111.339 15.0455 111.339 22.2923C111.339 29.2518 116.454 34.9557 123.643 34.9557C130.939 34.9557 135.983 29.2518 135.983 22.2923C135.983 15.0455 130.939 9.69971 123.643 9.69971ZM123.643 32.7688C117.742 32.7688 113.7 28.0695 113.7 22.2935C113.7 16.2663 117.742 11.889 123.643 11.889C129.616 11.889 133.622 16.2663 133.622 22.2935C133.622 28.0683 129.616 32.7688 123.643 32.7688Z" fill="#EC6608"/>
<path d="M215.13 9.69971L203.565 34.8848V34.9557H206.006L208.552 29.4224H221.708L224.255 34.9557H226.695V34.8848L215.13 9.69971ZM209.507 27.2944L213.786 18.0002C214.281 16.9356 214.67 15.8722 215.13 14.7716C215.554 15.9071 215.98 16.9705 216.474 18.0002L220.718 27.2944H209.507Z" fill="#EC6608"/>
<path d="M182.392 30.5291C181.898 29.5714 172.797 9.69971 172.797 9.69971L169.237 34.9557H171.5C171.5 34.9557 173.82 17.9197 173.856 17.0678C174.316 17.8488 182.392 34.9557 182.392 34.9557C182.392 34.9557 190.469 17.8488 190.929 17.0678C190.963 17.9197 193.285 34.9557 193.285 34.9557H195.548L191.988 9.69971C191.988 9.69971 182.887 29.5714 182.392 30.5291Z" fill="#EC6608"/>
<path d="M91.3974 31.245V34.9555H89.1345V31.245C81.8068 30.8485 77.2092 26.4531 77.2092 20.4729C77.2092 14.9071 81.1432 10.7593 87.5329 9.85569C88.3475 9.74034 89.1716 9.70068 89.9946 9.70068H90.5552C91.3686 9.70068 92.182 9.74034 92.9882 9.85208C99.4402 10.7449 103.323 14.8675 103.323 20.474C103.321 26.4892 98.7957 30.8485 91.3974 31.245ZM89.1692 29.0834V11.8611C83.1353 12.2216 79.5787 15.6077 79.5787 20.4716C79.5799 25.3368 83.1353 28.7229 89.1692 29.0834ZM100.987 20.4729C100.987 15.6089 97.3941 12.2216 91.3602 11.8623V29.0846C97.3953 28.7229 100.987 25.3368 100.987 20.4729Z" fill="#EC6608"/>
<path d="M144 9.69971H153.295C158.553 9.69971 161.219 13.8223 161.219 17.3886C161.219 20.9165 158.701 24.8168 153.146 24.8168H146.444V34.9569H144V9.69971ZM153.109 22.5879C156.961 22.5879 158.774 19.9876 158.774 17.3514C158.774 14.4544 156.589 11.9286 153.257 11.9286H146.443V22.5879H153.109Z" fill="#EC6608"/>
<path d="M77.2092 52.4339H78.3484V45.2003H82.9245V52.4339H84.0649V44.1514H77.2092V52.4339Z" fill="#EC6608"/>
<path d="M90.6571 48.5179C90.5073 50.3551 90.0222 51.3476 88.4709 51.5158L88.6015 52.5468C90.7493 52.2656 91.5723 51.1602 91.7771 48.4242L92.0395 45.2196H95.2152V52.4339H96.3544V44.1514H91.0117L90.6571 48.5179Z" fill="#EC6608"/>
<path d="M105.079 44.0576C104.033 44.0576 102.968 44.3196 101.847 44.8447L102.239 45.8191C103.154 45.3878 104.07 45.1258 104.966 45.1258C106.237 45.1258 107.059 45.7074 107.059 46.8681V47.4305C106.629 47.374 106.162 47.356 105.546 47.356C103.118 47.356 101.417 48.4242 101.417 50.2794C101.417 51.7033 102.445 52.584 104.051 52.584C105.508 52.584 106.573 51.928 107.17 50.9355L107.376 52.435H108.217V46.9258C108.217 45.0513 106.965 44.0576 105.079 44.0576ZM104.238 51.5158C103.21 51.5158 102.612 51.0292 102.612 50.2049C102.612 48.9865 103.771 48.3124 105.714 48.3124C106.255 48.3124 106.611 48.3316 107.059 48.3869C107.003 50.2794 105.939 51.5158 104.238 51.5158Z" fill="#EC6608"/>
<path d="M117.426 51.5723C115.707 51.5723 114.381 50.2601 114.381 48.2739C114.381 46.325 115.726 45.0321 117.445 45.0321C118.416 45.0321 119.071 45.294 119.743 45.8756L120.397 45.0885C119.556 44.3388 118.64 43.9639 117.445 43.9639C115.204 43.9639 113.222 45.5379 113.222 48.2739C113.222 51.1229 115.278 52.6405 117.332 52.6405C118.771 52.6405 119.668 52.2091 120.527 51.404L119.892 50.5798C119.22 51.2154 118.547 51.5723 117.426 51.5723Z" fill="#EC6608"/>
<path d="M124.13 45.2003H126.765V52.4339H127.905V45.2003H130.557V44.1514H124.13V45.2003Z" fill="#EC6608"/>
<path d="M137.226 49.0802C136.909 49.4359 136.591 49.7916 136.293 50.1665C136.311 49.8108 136.33 49.4359 136.33 49.061V44.1514H135.191V52.4339H135.602L140.216 47.356C140.496 47.0556 140.758 46.7372 141.001 46.4187C140.982 46.7372 140.982 47.0568 140.982 47.3752V52.4351H142.121V44.1526H141.71L137.226 49.0802Z" fill="#EC6608"/>
<path d="M152.394 48.1058C151.759 48.4614 151.123 48.5924 150.301 48.5924C148.937 48.5924 148.246 48.0865 148.246 46.7936V44.1514H147.106V46.7744C147.106 48.7234 148.189 49.6606 150.171 49.6606C150.955 49.6606 151.721 49.4732 152.394 49.1547V52.4339H153.534V44.1514H152.394V48.1058Z" fill="#EC6608"/>
<path d="M162.817 43.9448C160.37 43.9448 158.651 45.8758 158.651 48.2741C158.651 50.8407 160.407 52.6407 162.911 52.6407C164.219 52.6407 165.227 52.1913 166.068 51.385L165.414 50.5607C164.779 51.2168 164.051 51.5725 162.891 51.5725C161.341 51.5725 159.996 50.5235 159.809 48.762H166.423C166.46 48.4808 166.479 48.2188 166.479 47.9569C166.478 45.5381 165.115 43.9448 162.817 43.9448ZM159.846 47.749C160.07 46.1005 161.266 45.013 162.798 45.013C164.311 45.013 165.321 45.9875 165.357 47.749H159.846Z" fill="#EC6608"/>
<path d="M175.09 51.5723C173.371 51.5723 172.045 50.2601 172.045 48.2739C172.045 46.325 173.39 45.0321 175.109 45.0321C176.081 45.0321 176.735 45.294 177.407 45.8756L178.061 45.0885C177.22 44.3388 176.305 43.9639 175.109 43.9639C172.868 43.9639 170.886 45.5379 170.886 48.2739C170.886 51.1229 172.942 52.6405 174.996 52.6405C176.435 52.6405 177.332 52.2091 178.191 51.404L177.556 50.5798C176.883 51.2154 176.211 51.5723 175.09 51.5723Z" fill="#EC6608"/>
<path d="M188.969 44.2078V44.1514H187.586L184.018 47.7873V44.1514H182.879V52.4339H184.018V48.5924L187.923 52.4339H189.343V52.3401L185.046 48.1622L188.969 44.2078Z" fill="#EC6608"/>
<path d="M196.571 44.0576C195.525 44.0576 194.46 44.3196 193.339 44.8447L193.731 45.8191C194.646 45.3878 195.562 45.1258 196.458 45.1258C197.728 45.1258 198.551 45.7074 198.551 46.8681V47.4305C198.121 47.374 197.654 47.356 197.038 47.356C194.61 47.356 192.909 48.4242 192.909 50.2794C192.909 51.7033 193.937 52.584 195.543 52.584C197 52.584 198.065 51.928 198.662 50.9355L198.868 52.435H199.709V46.9258C199.709 45.0513 198.458 44.0576 196.571 44.0576ZM195.73 51.5158C194.702 51.5158 194.104 51.0292 194.104 50.2049C194.104 48.9865 195.263 48.3124 197.206 48.3124C197.747 48.3124 198.103 48.3316 198.551 48.3869C198.495 50.2794 197.431 51.5158 195.73 51.5158Z" fill="#EC6608"/>
<path d="M207.946 44.1516C206.171 44.1516 205.032 45.0888 205.032 46.7374C205.032 47.993 205.741 48.8173 206.881 49.1165L204.434 52.3392V52.4329H205.741L208.114 49.2475H210.188V52.4329H211.327V44.1504H207.946V44.1516ZM210.189 48.2562H207.965C206.694 48.2562 206.172 47.6566 206.172 46.7386C206.172 45.8014 206.696 45.1837 207.965 45.1837H210.189V48.2562Z" fill="#EC6608"/>
<path d="M84.3452 61.8351V61.7979H83.0754L81.5996 63.8598C81.3947 64.1602 81.1516 64.5158 80.9276 64.8907C80.7035 64.4978 80.4975 64.1794 80.2735 63.879L78.8168 61.7991H77.5087V61.8363L80.2735 65.715L77.2092 70.0443V70.0815H78.479L80.198 67.6832C80.4592 67.3275 80.6652 66.9899 80.9264 66.5585C81.1695 66.9899 81.3744 67.3083 81.6367 67.664L83.3366 70.0815H84.6447V70.0443L81.5804 65.715L84.3452 61.8351Z" fill="#EC6608"/>
<path d="M91.4249 66.7253C91.1075 67.0809 90.7888 67.4366 90.4905 67.8115C90.5097 67.4558 90.5289 67.0809 90.5289 66.706V61.7964H89.3896V70.0789H89.8005L94.4149 65.001C94.6952 64.7006 94.9564 64.3822 95.1995 64.0638C95.1816 64.3822 95.1816 64.7018 95.1816 65.0202V70.0801H96.3208V61.7964H95.9099L91.4249 66.7253Z" fill="#EC6608"/>
<path d="M106.368 61.6284C104.967 61.6284 103.846 62.228 103.136 63.1833L102.893 61.7966H102.034V74.2017H103.173V70.9407C103.173 70.1164 103.154 69.3486 103.135 68.7105C103.826 69.6478 104.984 70.2666 106.347 70.2666C108.72 70.2666 110.439 68.4486 110.439 65.9C110.441 63.4272 108.722 61.6284 106.368 61.6284ZM106.274 69.1996C104.444 69.1996 103.117 67.8694 103.117 65.9012C103.117 64.0087 104.425 62.6966 106.274 62.6966C108.05 62.6966 109.301 64.046 109.301 65.9577C109.301 67.8502 108.05 69.1996 106.274 69.1996Z" fill="#EC6608"/>
<path d="M119.145 66.3324C118.845 67.0821 118.547 67.8499 118.247 68.7872C117.912 67.8511 117.593 67.0821 117.258 66.3324L115.278 61.7976H114.082V61.8348L117.707 69.9491L117.595 70.2111C116.923 71.8596 116.362 72.9843 114.643 73.3027L114.867 74.258C116.941 73.8458 117.764 72.5722 118.603 70.491L122.134 61.8336V61.7964H120.938L119.145 66.3324Z" fill="#EC6608"/>
<path d="M130.989 61.6284C129.587 61.6284 128.466 62.228 127.757 63.1833L127.513 61.7966H126.654V74.2017H127.794V70.9407C127.794 70.1164 127.776 69.3486 127.757 68.7105C128.448 69.6478 129.606 70.2666 130.969 70.2666C133.341 70.2666 135.06 68.4486 135.06 65.9C135.06 63.4272 133.342 61.6284 130.989 61.6284ZM130.895 69.1996C129.063 69.1996 127.737 67.8694 127.737 65.9012C127.737 64.0087 129.046 62.6966 130.895 62.6966C132.669 62.6966 133.921 64.046 133.921 65.9577C133.921 67.8502 132.669 69.1996 130.895 69.1996Z" fill="#EC6608"/>
<path d="M140.197 70.0801H141.336V62.8466H145.54V61.7964H140.197V70.0801Z" fill="#EC6608"/>
<path d="M152.283 66.7253C151.965 67.0809 151.647 67.4366 151.348 67.8115C151.367 67.4558 151.387 67.0809 151.387 66.706V61.7964H150.247V70.0789H150.658L155.273 65.001C155.553 64.7006 155.814 64.3822 156.057 64.0638C156.039 64.3822 156.039 64.7018 156.039 65.0202V70.0801H157.179V61.7964H156.768L152.283 66.7253Z" fill="#EC6608"/>
<path d="M165.526 61.7964C163.752 61.7964 162.611 62.7336 162.611 64.3822C162.611 65.6378 163.322 66.4621 164.461 66.7613L162.013 69.984V70.0777H163.322L165.693 66.8923H167.767V70.0777H168.906V61.7964H165.526ZM167.768 65.901H165.545C164.274 65.901 163.752 65.3014 163.752 64.3834C163.752 63.4462 164.275 62.8285 165.545 62.8285H167.768V65.901Z" fill="#EC6608"/>
</g>
</g>
<defs>
<clipPath id="clip0_4001_3473">
<rect width="230.303" height="80" fill="white" transform="translate(0.983398 0.0800781)"/>
</clipPath>
</defs>
</svg>
