<svg width="164" height="60" viewBox="0 0 164 60" fill="none" xmlns="http://www.w3.org/2000/svg">
<path d="M39.6483 15.5374C35.6879 11.5649 30.5502 9.20486 25.0239 8.7831V0.243164L21.4264 7.13869V53.4957C10.4127 52.5758 1.72969 43.2918 1.72969 32.01C1.72969 21.989 8.58029 13.5441 17.8298 11.137V9.34426C13.6888 10.3281 9.88774 12.4431 6.8028 15.5374C2.41572 19.937 0 25.7875 0 32.01C0 38.2325 2.41572 44.0829 6.8028 48.4834C10.7632 52.4559 15.9009 54.816 21.4273 55.2378V59.4687H25.0247V10.5252C36.0393 11.4451 44.7223 20.7291 44.7223 32.0109C44.7223 42.0319 37.8717 50.4768 28.6222 52.8848V54.6775C32.7632 53.6937 36.5643 51.5787 39.6492 48.4843C44.0363 44.0838 46.452 38.2343 46.452 32.0109C46.452 25.7875 44.0354 19.937 39.6483 15.5374Z" fill="white"/>
<path d="M87.471 11.7623C82.1589 11.7623 78.3791 15.7126 78.3791 21.0676C78.3791 26.2104 82.1589 30.4253 87.471 30.4253C92.8628 30.4253 96.5895 26.2104 96.5895 21.0676C96.5895 15.7126 92.8628 11.7623 87.471 11.7623ZM87.471 28.8093C83.1105 28.8093 80.1238 25.3367 80.1238 21.0685C80.1238 16.6148 83.1105 13.3801 87.471 13.3801C91.8847 13.3801 94.8448 16.6148 94.8448 21.0685C94.8448 25.3358 91.8847 28.8093 87.471 28.8093Z" fill="white"/>
<path d="M155.076 11.7623L146.53 30.373V30.4253H148.333L150.215 26.3365H159.936L161.818 30.4253H163.621V30.373L155.076 11.7623ZM150.92 24.764L154.082 17.896C154.448 17.1093 154.736 16.3235 155.076 15.5102C155.389 16.3493 155.703 17.1351 156.069 17.896L159.205 24.764H150.92Z" fill="white"/>
<path d="M130.884 27.1543C130.518 26.4466 123.793 11.7623 123.793 11.7623L121.163 30.4253H122.835C122.835 30.4253 124.549 17.8365 124.576 17.207C124.916 17.7841 130.884 30.4253 130.884 30.4253C130.884 30.4253 136.852 17.7841 137.192 17.207C137.218 17.8365 138.933 30.4253 138.933 30.4253H140.605L137.974 11.7623C137.974 11.7623 131.25 26.4466 130.884 27.1543Z" fill="white"/>
<path d="M63.6429 27.6834V30.4253H61.9707V27.6834C56.5559 27.3904 53.1585 24.1425 53.1585 19.7233C53.1585 15.6105 56.0655 12.5454 60.7872 11.8777C61.3891 11.7925 61.9982 11.7632 62.6063 11.7632H63.0206C63.6216 11.7632 64.2227 11.7925 64.8184 11.8751C69.5861 12.5348 72.4551 15.5812 72.4551 19.7242C72.4542 24.1691 69.1099 27.3904 63.6429 27.6834ZM61.9964 26.0861V13.3597C57.5376 13.626 54.9094 16.1282 54.9094 19.7224C54.9103 23.3176 57.5376 25.8197 61.9964 26.0861ZM70.7289 19.7233C70.7289 16.129 68.0742 13.626 63.6154 13.3605V26.087C68.0751 25.8197 70.7289 23.3176 70.7289 19.7233Z" fill="white"/>
<path d="M102.514 11.7623H109.382C113.267 11.7623 115.238 14.8088 115.238 17.4441C115.238 20.051 113.377 22.9331 109.273 22.9331H104.32V30.4262H102.514V11.7623ZM109.245 21.2861C112.091 21.2861 113.431 19.3646 113.431 17.4166C113.431 15.2758 111.817 13.4094 109.354 13.4094H104.319V21.2861H109.245Z" fill="white"/>
<path d="M53.1585 43.3411H54.0003V37.9958H57.3818V43.3411H58.2245V37.2207H53.1585V43.3411Z" fill="white"/>
<path d="M63.096 40.4474C62.9854 41.805 62.6269 42.5384 61.4805 42.6627L61.577 43.4245C63.1642 43.2168 63.7723 42.3999 63.9237 40.3781L64.1176 38.0101H66.4642V43.3411H67.3061V37.2207H63.358L63.096 40.4474Z" fill="white"/>
<path d="M73.753 37.1515C72.9802 37.1515 72.1933 37.3451 71.3647 37.7331L71.6542 38.4532C72.3305 38.1344 73.0077 37.9408 73.6698 37.9408C74.609 37.9408 75.2162 38.3706 75.2162 39.2283V39.6439C74.8985 39.6021 74.5532 39.5888 74.0982 39.5888C72.3039 39.5888 71.0469 40.3782 71.0469 41.7491C71.0469 42.8013 71.8064 43.4521 72.9935 43.4521C74.0699 43.4521 74.8569 42.9673 75.2986 42.2339L75.4508 43.342H76.0722V39.2709C76.0722 37.8858 75.1472 37.1515 73.753 37.1515ZM73.1316 42.6628C72.3721 42.6628 71.9304 42.3032 71.9304 41.6941C71.9304 40.7937 72.7864 40.2956 74.2222 40.2956C74.6223 40.2956 74.8852 40.3098 75.2162 40.3506C75.1746 41.7491 74.3886 42.6628 73.1316 42.6628Z" fill="white"/>
<path d="M82.8767 42.7045C81.6065 42.7045 80.6266 41.7349 80.6266 40.2672C80.6266 38.827 81.6206 37.8716 82.8909 37.8716C83.6088 37.8716 84.0921 38.0652 84.5887 38.4949L85.0721 37.9134C84.4506 37.3593 83.7744 37.0823 82.8909 37.0823C81.2347 37.0823 79.7706 38.2454 79.7706 40.2672C79.7706 42.3725 81.2896 43.4939 82.8077 43.4939C83.8708 43.4939 84.5339 43.1751 85.1685 42.5802L84.6994 41.9711C84.2028 42.4408 83.7053 42.7045 82.8767 42.7045Z" fill="white"/>
<path d="M87.8311 37.9958H89.7777V43.3411H90.6204V37.9958H92.5802V37.2207H87.8311V37.9958Z" fill="white"/>
<path d="M97.5084 40.8629C97.2738 41.1257 97.0392 41.3886 96.8188 41.6656C96.8321 41.4028 96.8462 41.1257 96.8462 40.8487V37.2207H96.0044V43.3411H96.308L99.7178 39.5888C99.925 39.3668 100.118 39.1315 100.298 38.8962C100.283 39.1315 100.283 39.3677 100.283 39.603V43.342H101.125V37.2216H100.822L97.5084 40.8629Z" fill="white"/>
<path d="M108.717 40.1428C108.248 40.4056 107.778 40.5024 107.171 40.5024C106.162 40.5024 105.652 40.1286 105.652 39.1732V37.2207H104.81V39.159C104.81 40.5992 105.61 41.2918 107.074 41.2918C107.654 41.2918 108.219 41.1533 108.717 40.918V43.3411H109.56V37.2207H108.717V40.1428Z" fill="white"/>
<path d="M116.419 37.0681C114.611 37.0681 113.34 38.495 113.34 40.2673C113.34 42.1638 114.638 43.4939 116.488 43.4939C117.455 43.4939 118.2 43.1619 118.821 42.5661L118.338 41.957C117.869 42.4418 117.331 42.7046 116.474 42.7046C115.328 42.7046 114.334 41.9294 114.196 40.6278H119.083C119.111 40.42 119.125 40.2264 119.125 40.0329C119.124 38.2455 118.117 37.0681 116.419 37.0681ZM114.224 39.8792C114.389 38.661 115.273 37.8575 116.405 37.8575C117.523 37.8575 118.269 38.5776 118.296 39.8792H114.224Z" fill="white"/>
<path d="M125.488 42.7045C124.218 42.7045 123.238 41.7349 123.238 40.2672C123.238 38.827 124.232 37.8716 125.502 37.8716C126.22 37.8716 126.703 38.0652 127.2 38.4949L127.683 37.9134C127.062 37.3593 126.385 37.0823 125.502 37.0823C123.846 37.0823 122.382 38.2454 122.382 40.2672C122.382 42.3725 123.901 43.4939 125.419 43.4939C126.482 43.4939 127.145 43.1751 127.78 42.5802L127.31 41.9711C126.813 42.4408 126.316 42.7045 125.488 42.7045Z" fill="white"/>
<path d="M135.744 37.2624V37.2207H134.722L132.085 39.9075V37.2207H131.243V43.3411H132.085V40.5024L134.971 43.3411H136.02V43.2718L132.845 40.1846L135.744 37.2624Z" fill="white"/>
<path d="M141.362 37.1515C140.589 37.1515 139.802 37.3451 138.973 37.7331L139.263 38.4532C139.939 38.1344 140.616 37.9408 141.278 37.9408C142.217 37.9408 142.825 38.3706 142.825 39.2283V39.6439C142.507 39.6021 142.162 39.5888 141.707 39.5888C139.912 39.5888 138.655 40.3782 138.655 41.7491C138.655 42.8013 139.415 43.4521 140.602 43.4521C141.678 43.4521 142.465 42.9673 142.907 42.2339L143.059 43.342H143.681V39.2709C143.681 37.8858 142.756 37.1515 141.362 37.1515ZM140.74 42.6628C139.981 42.6628 139.539 42.3032 139.539 41.6941C139.539 40.7937 140.395 40.2956 141.831 40.2956C142.231 40.2956 142.494 40.3098 142.825 40.3506C142.783 41.7491 141.997 42.6628 140.74 42.6628Z" fill="white"/>
<path d="M149.767 37.2207C148.455 37.2207 147.614 37.9133 147.614 39.1315C147.614 40.0594 148.138 40.6685 148.98 40.8896L147.172 43.271V43.3402H148.138L149.891 40.9864H151.423V43.3402H152.265V37.2198H149.767V37.2207ZM151.424 40.2538H149.781C148.842 40.2538 148.456 39.8108 148.456 39.1324C148.456 38.4398 148.843 37.9835 149.781 37.9835H151.424V40.2538Z" fill="white"/>
<path d="M58.4317 50.2881V50.2606H57.4934L56.4028 51.7843C56.2514 52.0063 56.0717 52.2691 55.9062 52.5461C55.7406 52.2558 55.5884 52.0205 55.4229 51.7985L54.3465 50.2615H53.3798V50.289L55.4229 53.1552L53.1585 56.3544V56.3819H54.0968L55.3671 54.6096C55.5601 54.3468 55.7123 54.0973 55.9053 53.7785C56.085 54.0973 56.2364 54.3326 56.4302 54.5954L57.6863 56.3819H58.653V56.3544L56.3886 53.1552L58.4317 50.2881Z" fill="white"/>
<path d="M63.6634 53.902C63.4289 54.1648 63.1934 54.4276 62.973 54.7047C62.9872 54.4418 63.0013 54.1648 63.0013 53.8878V50.2598H62.1595V56.3801H62.4631L65.8729 52.6278C66.0801 52.4058 66.273 52.1706 66.4527 51.9353C66.4395 52.1706 66.4394 52.4067 66.4394 52.642V56.381H67.2813V50.2598H66.9777L63.6634 53.902Z" fill="white"/>
<path d="M74.7054 50.1355C73.6706 50.1355 72.842 50.5786 72.3171 51.2845L72.1374 50.2598H71.5027V59.4266H72.3445V57.0168C72.3445 56.4077 72.3304 55.8403 72.3162 55.3689C72.827 56.0614 73.6829 56.5187 74.6903 56.5187C76.4439 56.5187 77.7142 55.1753 77.7142 53.292C77.7151 51.4647 76.4448 50.1355 74.7054 50.1355ZM74.6363 55.7302C73.2837 55.7302 72.3029 54.7473 72.3029 53.2929C72.3029 51.8945 73.2696 50.9248 74.6363 50.9248C75.9482 50.9248 76.8732 51.922 76.8732 53.3346C76.8732 54.7331 75.9482 55.7302 74.6363 55.7302Z" fill="white"/>
<path d="M84.1469 53.6116C83.9256 54.1657 83.7052 54.7331 83.4839 55.4256C83.2361 54.734 83.0006 54.1657 82.7527 53.6116L81.2895 50.2607H80.4061V50.2882L83.0847 56.2843L83.0015 56.4778C82.5049 57.696 82.0906 58.5271 80.8203 58.7624L80.9859 59.4683C82.5182 59.1637 83.1263 58.2226 83.7468 56.6847L86.3555 50.2873V50.2598H85.4721L84.1469 53.6116Z" fill="white"/>
<path d="M92.8991 50.1355C91.8634 50.1355 91.0348 50.5786 90.5108 51.2845L90.3311 50.2598H89.6964V59.4266H90.5382V57.0168C90.5382 56.4077 90.525 55.8403 90.5108 55.3689C91.0216 56.0614 91.8776 56.5187 92.8849 56.5187C94.6376 56.5187 95.9079 55.1753 95.9079 53.292C95.9079 51.4647 94.6385 50.1355 92.8991 50.1355ZM92.83 55.7302C91.4766 55.7302 90.4966 54.7473 90.4966 53.2929C90.4966 51.8945 91.4633 50.9248 92.83 50.9248C94.141 50.9248 95.0661 51.922 95.0661 53.3346C95.0661 54.7331 94.141 55.7302 92.83 55.7302Z" fill="white"/>
<path d="M99.7036 56.381H100.545V51.0358H103.652V50.2598H99.7036V56.381Z" fill="white"/>
<path d="M108.634 53.902C108.4 54.1648 108.164 54.4276 107.944 54.7047C107.958 54.4418 107.972 54.1648 107.972 53.8878V50.2598H107.13V56.3801H107.434L110.844 52.6278C111.051 52.4058 111.244 52.1706 111.424 51.9353C111.41 52.1706 111.41 52.4067 111.41 52.642V56.381H112.252V50.2598H111.949L108.634 53.902Z" fill="white"/>
<path d="M118.42 50.2598C117.109 50.2598 116.266 50.9523 116.266 52.1706C116.266 53.0984 116.791 53.7075 117.633 53.9286L115.825 56.31V56.3793H116.791L118.544 54.0254H120.076V56.3793H120.918V50.2598H118.42ZM120.077 53.2929H118.434C117.495 53.2929 117.109 52.8498 117.109 52.1714C117.109 51.4789 117.496 51.0225 118.434 51.0225H120.077V53.2929Z" fill="white"/>
</svg>
