<svg width="54" height="54" viewBox="0 0 54 54" fill="none" xmlns="http://www.w3.org/2000/svg">
<path d="M36.7292 37.3485C36.9042 37.4141 37.1885 37.5016 37.5167 37.4797C38.0417 37.4578 38.5229 37.2391 38.8729 36.8891C39.2667 36.4953 39.4635 35.9703 39.4635 35.4235C39.4198 32.1203 41.5198 29.2328 44.6479 28.2485C44.8667 28.1828 45.0854 28.0735 45.2823 27.9203C45.7198 27.5922 46.0042 27.111 46.0698 26.6078C46.1573 26.061 46.026 25.5141 45.6979 25.0547C43.7292 22.4078 43.7073 18.8422 45.676 16.1953L45.9167 15.8891L46.026 15.561C46.201 15.036 46.1354 14.4672 45.8948 14.0297C45.6542 13.5266 45.2167 13.1547 44.6917 13.0016C41.5635 11.9953 39.4635 9.12971 39.5073 5.84846C39.5073 5.58596 39.4635 5.36721 39.3979 5.14846C39.2229 4.64534 38.851 4.22971 38.3479 3.96721C37.8667 3.74846 37.3198 3.70471 36.8167 3.87971C36.051 4.14221 35.2417 4.27346 34.4323 4.27346C32.026 4.27346 29.751 3.11409 28.3729 1.14534C28.2198 0.948462 28.0448 0.773462 27.8917 0.664087C26.9729 0.00783715 25.7042 0.226587 25.0479 1.14534C23.6479 3.11409 21.3948 4.27346 18.9885 4.27346C18.1573 4.27346 17.3698 4.14221 16.626 3.87971C15.926 3.63909 15.0292 3.81409 14.5042 4.36096C14.1104 4.75471 13.9135 5.27971 13.9135 5.80471C13.9573 9.10784 11.8573 11.9953 8.72917 12.9578C8.48854 13.0235 8.29167 13.1328 8.07292 13.286C7.17604 13.9641 7.00104 15.2328 7.65729 16.1516C9.62604 18.7985 9.62604 22.3641 7.65729 25.0328C7.52604 25.2078 7.41667 25.4266 7.35104 25.6235C7.19792 26.1485 7.24167 26.6735 7.48229 27.1985C7.74479 27.6797 8.18229 28.0297 8.66354 28.1828C11.8135 29.1891 13.8917 32.0766 13.8479 35.3141C13.826 35.5766 13.8698 35.8172 13.9573 36.0578C14.1323 36.561 14.5042 36.9766 15.0073 37.2391C15.5104 37.4578 16.0354 37.5016 16.5385 37.3266C17.326 37.0641 18.1573 36.9328 18.9667 36.9328C21.3948 36.9328 23.5823 38.0703 25.0042 40.061C25.1354 40.236 25.3104 40.411 25.4854 40.5422C25.8354 40.7828 26.251 40.9141 26.6667 40.9141C26.776 40.9141 26.9073 40.9141 27.0167 40.8922C27.5635 40.8047 28.0229 40.4985 28.3292 40.061C30.2323 37.4141 33.601 36.2985 36.7292 37.3485ZM26.6448 38.7485C24.851 36.2766 21.9854 34.811 18.9448 34.811C17.9385 34.811 16.9104 34.9641 15.9698 35.2922C15.9698 31.136 13.3229 27.4828 9.40729 26.236C11.8573 22.8672 11.8573 18.3828 9.42917 15.0141C13.3667 13.7235 15.9917 10.1141 16.0135 5.95784C16.9542 6.26409 17.9385 6.41721 18.9448 6.41721C21.9854 6.41721 24.8729 4.95159 26.6667 2.50159C28.4604 4.95159 31.3479 6.41721 34.4104 6.41721C35.4385 6.41721 36.4448 6.26409 37.3417 5.93596C37.3417 10.0485 39.9448 13.6578 43.8823 14.9922C41.4542 18.361 41.4542 22.8235 43.8823 26.2141C39.9448 27.5047 37.3417 31.1141 37.3198 35.2703C33.3604 34.0016 29.1167 35.3797 26.6448 38.7485Z" fill="#909090"/>
<path d="M35.5041 19.1469C32.1572 17.7469 29.5322 15.1438 28.1104 11.7969C27.8697 11.2063 27.2791 10.8125 26.6447 10.8125C26.0104 10.8125 25.4197 11.2063 25.1791 11.775C23.7572 15.1 21.1541 17.7031 17.8291 19.125C17.2385 19.3656 16.8447 19.9344 16.8447 20.5688C16.8447 21.2031 17.2166 21.7719 17.8072 22.0344C21.0229 23.4344 23.6916 26.1469 25.1572 29.4719C25.4197 30.0625 25.9885 30.4344 26.601 30.4344C27.2354 30.4344 27.8041 30.0625 28.0447 29.4719C29.4447 26.2344 32.1572 23.5438 35.5041 22.0563C36.0729 21.7938 36.4447 21.225 36.4447 20.5906C36.4666 19.9563 36.0947 19.3875 35.5041 19.1469ZM26.6229 27.5688C25.0479 24.5938 22.6197 22.1438 19.7322 20.5906C22.7072 19.0594 25.1135 16.675 26.6447 13.7C28.176 16.6969 30.6041 19.1031 33.601 20.6125C30.6041 22.2094 28.1541 24.6594 26.6229 27.5688Z" fill="#909090"/>
<path d="M20.2353 40.3025C19.7322 39.9744 19.076 40.1275 18.7479 40.6088L13.0166 49.3807L10.151 43.4963L4.1791 43.4744L10.1729 34.2869C10.501 33.7838 10.3479 33.1275 9.8666 32.7994C9.36348 32.4713 8.70723 32.6244 8.3791 33.1057L0.219727 45.6182L8.8166 45.64L12.7541 53.7119L20.5416 41.79C20.8697 41.2869 20.7385 40.6088 20.2353 40.3025Z" fill="#909090"/>
<path d="M44.9323 33.1034C44.6042 32.6003 43.948 32.469 43.4448 32.7972C42.9417 33.1253 42.8105 33.7815 43.1386 34.2847L49.1542 43.4722L43.1605 43.494L40.2948 49.3784L34.5636 40.6065C34.2355 40.1034 33.5792 39.9722 33.0761 40.3003C32.573 40.6284 32.4417 41.2847 32.7698 41.7878L40.5792 53.7097L44.5167 45.6378L53.1136 45.6159L44.9323 33.1034Z" fill="#909090"/>
</svg>
