<svg width="132" height="21" viewBox="0 0 132 21" fill="none" xmlns="http://www.w3.org/2000/svg">
<path d="M7.62759 5.0869C8.68313 3.19336 9.21088 2.24658 9.99996 2.24658C10.789 2.24658 11.3168 3.19335 12.3723 5.08689L12.6454 5.57677C12.9454 6.11486 13.0953 6.38391 13.3292 6.56142C13.563 6.73894 13.8542 6.80483 14.4367 6.93662L14.967 7.05661C17.0167 7.52038 18.0416 7.75227 18.2855 8.53636C18.5293 9.32042 17.8306 10.1375 16.4332 11.7715L16.0717 12.1942C15.6746 12.6586 15.476 12.8907 15.3867 13.178C15.2975 13.4652 15.3275 13.775 15.3875 14.3946L15.4421 14.9586C15.6534 17.1387 15.759 18.2288 15.1207 18.7134C14.4823 19.198 13.5227 18.7562 11.6035 17.8726L11.107 17.6439C10.5617 17.3928 10.289 17.2672 9.99996 17.2672C9.71088 17.2672 9.43821 17.3928 8.89288 17.6439L8.39638 17.8726C6.47719 18.7562 5.51761 19.198 4.87925 18.7134C4.24089 18.2288 4.34653 17.1387 4.55779 14.9586L4.61244 14.3946C4.67249 13.775 4.7025 13.4652 4.61318 13.178C4.52386 12.8907 4.32532 12.6586 3.92823 12.1942L3.56671 11.7715C2.16934 10.1375 1.47064 9.32042 1.71448 8.53636C1.95831 7.75227 2.98318 7.52038 5.03291 7.05661L5.5632 6.93662C6.14567 6.80483 6.4369 6.73894 6.67074 6.56142C6.90459 6.38391 7.05457 6.11487 7.35452 5.57677L7.62759 5.0869Z" fill="#EC6608"/>
<path d="M35.6276 5.0869C36.6831 3.19336 37.2109 2.24658 38 2.24658C38.789 2.24658 39.3168 3.19335 40.3723 5.08689L40.6454 5.57677C40.9454 6.11486 41.0953 6.38391 41.3292 6.56142C41.563 6.73894 41.8542 6.80483 42.4367 6.93662L42.967 7.05661C45.0167 7.52038 46.0416 7.75227 46.2855 8.53636C46.5293 9.32042 45.8306 10.1375 44.4332 11.7715L44.0717 12.1942C43.6746 12.6586 43.476 12.8907 43.3867 13.178C43.2975 13.4652 43.3275 13.775 43.3875 14.3946L43.4421 14.9586C43.6534 17.1387 43.759 18.2288 43.1207 18.7134C42.4823 19.198 41.5227 18.7562 39.6035 17.8726L39.107 17.6439C38.5617 17.3928 38.289 17.2672 38 17.2672C37.7109 17.2672 37.4382 17.3928 36.8929 17.6439L36.3964 17.8726C34.4772 18.7562 33.5176 19.198 32.8793 18.7134C32.2409 18.2288 32.3465 17.1387 32.5578 14.9586L32.6124 14.3946C32.6725 13.775 32.7025 13.4652 32.6132 13.178C32.5239 12.8907 32.3253 12.6586 31.9282 12.1942L31.5667 11.7715C30.1693 10.1375 29.4706 9.32042 29.7145 8.53636C29.9583 7.75227 30.9832 7.52038 33.0329 7.05661L33.5632 6.93662C34.1457 6.80483 34.4369 6.73894 34.6707 6.56142C34.9046 6.38391 35.0546 6.11487 35.3545 5.57677L35.6276 5.0869Z" fill="#EC6608"/>
<path d="M63.6276 5.0869C64.6831 3.19336 65.2109 2.24658 66 2.24658C66.789 2.24658 67.3168 3.19335 68.3723 5.08689L68.6454 5.57677C68.9454 6.11486 69.0953 6.38391 69.3292 6.56142C69.563 6.73894 69.8542 6.80483 70.4367 6.93662L70.967 7.05661C73.0167 7.52038 74.0416 7.75227 74.2855 8.53636C74.5293 9.32042 73.8306 10.1375 72.4332 11.7715L72.0717 12.1942C71.6746 12.6586 71.476 12.8907 71.3867 13.178C71.2975 13.4652 71.3275 13.775 71.3875 14.3946L71.4421 14.9586C71.6534 17.1387 71.759 18.2288 71.1207 18.7134C70.4823 19.198 69.5227 18.7562 67.6035 17.8726L67.107 17.6439C66.5617 17.3928 66.289 17.2672 66 17.2672C65.7109 17.2672 65.4382 17.3928 64.8929 17.6439L64.3964 17.8726C62.4772 18.7562 61.5176 19.198 60.8793 18.7134C60.2409 18.2288 60.3465 17.1387 60.5578 14.9586L60.6124 14.3946C60.6725 13.775 60.7025 13.4652 60.6132 13.178C60.5239 12.8907 60.3253 12.6586 59.9282 12.1942L59.5667 11.7715C58.1693 10.1375 57.4706 9.32042 57.7145 8.53636C57.9583 7.75227 58.9832 7.52038 61.0329 7.05661L61.5632 6.93662C62.1457 6.80483 62.4369 6.73894 62.6707 6.56142C62.9046 6.38391 63.0546 6.11487 63.3545 5.57677L63.6276 5.0869Z" fill="#EC6608"/>
<path d="M91.6276 5.0869C92.6831 3.19336 93.2109 2.24658 94 2.24658C94.789 2.24658 95.3168 3.19335 96.3723 5.08689L96.6454 5.57677C96.9454 6.11486 97.0953 6.38391 97.3292 6.56142C97.563 6.73894 97.8542 6.80483 98.4367 6.93662L98.967 7.05661C101.017 7.52038 102.042 7.75227 102.285 8.53636C102.529 9.32042 101.831 10.1375 100.433 11.7715L100.072 12.1942C99.6746 12.6586 99.476 12.8907 99.3867 13.178C99.2975 13.4652 99.3275 13.775 99.3875 14.3946L99.4421 14.9586C99.6534 17.1387 99.759 18.2288 99.1207 18.7134C98.4823 19.198 97.5227 18.7562 95.6035 17.8726L95.107 17.6439C94.5617 17.3928 94.289 17.2672 94 17.2672C93.7109 17.2672 93.4382 17.3928 92.8929 17.6439L92.3964 17.8726C90.4772 18.7562 89.5176 19.198 88.8793 18.7134C88.2409 18.2288 88.3465 17.1387 88.5578 14.9586L88.6124 14.3946C88.6725 13.775 88.7025 13.4652 88.6132 13.178C88.5239 12.8907 88.3253 12.6586 87.9282 12.1942L87.5667 11.7715C86.1693 10.1375 85.4706 9.32042 85.7145 8.53636C85.9583 7.75227 86.9832 7.52038 89.0329 7.05661L89.5632 6.93662C90.1457 6.80483 90.4369 6.73894 90.6707 6.56142C90.9046 6.38391 91.0546 6.11487 91.3545 5.57677L91.6276 5.0869Z" fill="#EC6608"/>
<path d="M119.628 5.0869C120.683 3.19336 121.211 2.24658 122 2.24658C122.789 2.24658 123.317 3.19335 124.372 5.08689L124.645 5.57677C124.945 6.11486 125.095 6.38391 125.329 6.56142C125.563 6.73894 125.854 6.80483 126.437 6.93662L126.967 7.05661C129.017 7.52038 130.042 7.75227 130.285 8.53636C130.529 9.32042 129.831 10.1375 128.433 11.7715L128.072 12.1942C127.675 12.6586 127.476 12.8907 127.387 13.178C127.297 13.4652 127.327 13.775 127.387 14.3946L127.442 14.9586C127.653 17.1387 127.759 18.2288 127.121 18.7134C126.482 19.198 125.523 18.7562 123.604 17.8726L123.107 17.6439C122.562 17.3928 122.289 17.2672 122 17.2672C121.711 17.2672 121.438 17.3928 120.893 17.6439L120.396 17.8726C118.477 18.7562 117.518 19.198 116.879 18.7134C116.241 18.2288 116.347 17.1387 116.558 14.9586L116.612 14.3946C116.672 13.775 116.703 13.4652 116.613 13.178C116.524 12.8907 116.325 12.6586 115.928 12.1942L115.567 11.7715C114.169 10.1375 113.471 9.32042 113.714 8.53636C113.958 7.75227 114.983 7.52038 117.033 7.05661L117.563 6.93662C118.146 6.80483 118.437 6.73894 118.671 6.56142C118.905 6.38391 119.055 6.11487 119.355 5.57677L119.628 5.0869Z" fill="#EC6608"/>
</svg>
