<svg width="52" height="40" viewBox="0 0 52 40" fill="none" xmlns="http://www.w3.org/2000/svg">
<path d="M44.375 13.1748V8.75C44.3726 6.66214 43.5422 4.66047 42.0659 3.18413C40.5895 1.70779 38.5879 0.877351 36.5 0.875H15.5C13.4121 0.877351 11.4105 1.70779 9.93413 3.18413C8.45779 4.66047 7.62735 6.66214 7.625 8.75V13.1748C5.69994 13.3899 3.92172 14.3071 2.63033 15.7508C1.33895 17.1946 0.625 19.0637 0.625 21.0007C0.625 22.9378 1.33895 24.8069 2.63033 26.2507C3.92172 27.6944 5.69994 28.6116 7.625 28.8267V36.75C7.6258 37.4459 7.90261 38.1132 8.39472 38.6053C8.88683 39.0974 9.55405 39.3742 10.25 39.375H41.75C42.4459 39.3742 43.1132 39.0974 43.6053 38.6053C44.0974 38.1132 44.3742 37.4459 44.375 36.75V28.8267C46.3001 28.6116 48.0783 27.6944 49.3697 26.2507C50.6611 24.8069 51.375 22.9378 51.375 21.0007C51.375 19.0637 50.6611 17.1946 49.3697 15.7508C48.0783 14.3071 46.3001 13.3899 44.375 13.1748ZM15.5 2.625H36.5C38.1239 2.62682 39.6808 3.27272 40.829 4.42098C41.9773 5.56925 42.6232 7.12611 42.625 8.75V13.1748C40.701 13.3922 38.9242 14.3099 37.6333 15.753C36.3424 17.1961 35.6275 19.0638 35.625 21V21.875H16.375V21C16.3725 19.0638 15.6576 17.1961 14.3667 15.753C13.0758 14.3099 11.299 13.3922 9.375 13.1748V8.75C9.37682 7.12611 10.0227 5.56925 11.171 4.42098C12.3192 3.27272 13.8761 2.62682 15.5 2.625ZM43.5648 27.1247C43.5434 27.1231 43.5218 27.1223 43.5 27.1223C43.3851 27.1223 43.2713 27.145 43.1651 27.1889C43.059 27.2329 42.9625 27.2973 42.8813 27.3786C42.8 27.4599 42.7356 27.5563 42.6916 27.6625C42.6476 27.7686 42.625 27.8824 42.625 27.9973V36.75C42.6247 36.982 42.5325 37.2044 42.3684 37.3684C42.2044 37.5325 41.982 37.6247 41.75 37.625H10.25C10.018 37.6247 9.79561 37.5325 9.63157 37.3684C9.46754 37.2044 9.37527 36.982 9.375 36.75V27.9959C9.37464 27.7641 9.2823 27.5419 9.11824 27.3781C8.95418 27.2143 8.73183 27.1223 8.5 27.1223C8.47821 27.1223 8.4566 27.1231 8.43516 27.1247C7.22658 27.1119 6.0488 26.7418 5.0501 26.061C4.0514 25.3803 3.27644 24.4192 2.82279 23.299C2.36914 22.1787 2.25707 20.9492 2.5007 19.7654C2.74433 18.5815 3.33277 17.4962 4.19193 16.6461C5.05108 15.796 6.14255 15.2191 7.3289 14.988C8.51526 14.7569 9.74346 14.882 10.8589 15.3475C11.9743 15.8129 12.9271 16.598 13.5972 17.6039C14.2674 18.6097 14.625 19.7913 14.625 21V29.75C14.625 29.9821 14.7172 30.2046 14.8813 30.3687C15.0454 30.5328 15.2679 30.625 15.5 30.625C15.7321 30.625 15.9546 30.5328 16.1187 30.3687C16.2828 30.2046 16.375 29.9821 16.375 29.75V23.625H35.625V29.75C35.625 29.9821 35.7172 30.2046 35.8813 30.3687C36.0454 30.5328 36.2679 30.625 36.5 30.625C36.7321 30.625 36.9546 30.5328 37.1187 30.3687C37.2828 30.2046 37.375 29.9821 37.375 29.75V21C37.375 19.7914 37.7326 18.6097 38.4028 17.6039C39.0729 16.598 40.0257 15.813 41.1411 15.3475C42.2565 14.882 43.4847 14.7569 44.6711 14.988C45.8574 15.2191 46.9489 15.796 47.808 16.6461C48.6672 17.4963 49.2556 18.5815 49.4993 19.7654C49.7429 20.9492 49.6308 22.1787 49.1772 23.299C48.7235 24.4192 47.9486 25.3803 46.9499 26.061C45.9512 26.7418 44.7734 27.1119 43.5648 27.1247Z" fill="#909090"/>
</svg>
