<svg width="435" height="438" viewBox="0 0 435 438" fill="none" xmlns="http://www.w3.org/2000/svg">
<path opacity="0.1" d="M371.533 64.8448C351.319 44.4569 327.096 28.09 300.614 16.9899C275.262 6.3429 247.877 0.56633 220.379 0.0566322V0H218.177C218.064 0 218.007 0 217.895 0C217.838 0 217.782 0 217.725 0C97.6265 0.226532 0 98.315 0 218.83V219.17C0 339.628 97.5131 437.66 217.555 438C217.499 438 217.443 438 217.386 438H217.725C217.782 438 217.838 438 217.838 438C217.951 438 218.064 438 218.12 438H220.322V437.943C247.538 437.547 274.697 432.054 299.936 421.633C326.305 410.816 350.472 394.676 370.686 374.514C390.9 354.353 407.162 330.171 418.172 303.78C429.239 277.389 434.942 248.732 434.998 220.076C435.111 191.42 429.578 162.707 418.68 136.146C407.895 109.585 391.747 85.2327 371.533 64.8448ZM220.379 129.746C230.937 130.143 241.497 132.351 251.321 136.372C262.275 140.846 272.326 147.529 280.739 155.854C289.152 164.236 295.927 174.26 300.557 185.247C305.187 196.234 307.559 208.126 307.672 220.076C307.729 232.026 305.47 243.975 300.953 255.019C296.436 266.119 289.773 276.256 281.36 284.808C272.947 293.303 262.84 300.155 251.829 304.799C241.891 308.99 231.22 311.369 220.492 311.878V248.846C226.816 248.109 232.914 245.278 237.488 240.747C242.965 235.424 246.239 227.835 246.352 220.076C246.465 212.317 243.416 204.559 237.939 199.009C233.366 194.251 227.098 191.137 220.548 190.23V129.746H220.379ZM220.379 192.496C226.364 193.232 232.18 195.95 236.528 200.198C241.779 205.295 244.941 212.6 244.997 220.019C245.11 227.495 242.174 234.914 236.923 240.294C232.575 244.825 226.646 247.826 220.379 248.732V192.496ZM220.379 311.991C231.163 311.595 241.892 309.33 251.886 305.196C263.009 300.665 273.229 293.869 281.812 285.374C290.338 276.879 297.283 266.628 301.913 255.472C306.599 244.315 309.027 232.195 309.14 220.076C309.196 207.957 306.882 195.78 302.308 184.567C297.735 173.297 290.902 162.99 282.376 154.268C273.85 145.604 263.574 138.638 252.338 133.881C242.23 129.633 231.333 127.198 220.379 126.688V67.1102C239.125 67.5066 257.815 71.3576 275.205 78.4934C293.726 86.0822 310.721 97.4088 324.95 111.567C339.179 125.725 350.585 142.715 358.377 161.234C366.169 179.81 370.178 199.915 370.234 220.076C370.291 240.237 366.451 260.455 358.772 279.088C351.149 297.777 339.8 314.936 325.571 329.265C311.399 343.593 294.346 355.146 275.713 362.961C258.209 370.324 239.351 374.344 220.322 374.854V311.991H220.379ZM215.975 433.526C99.0942 432.337 4.40408 336.627 4.40408 219.113V218.887L2.20231 218.83H4.40408C4.40408 101.373 99.0942 5.60667 215.975 4.41738V433.526ZM416.704 303.157C405.919 329.434 389.94 353.56 369.952 373.778C349.964 393.996 325.966 410.193 299.767 421.18C274.697 431.714 247.594 437.377 220.379 437.943V374.967C239.35 374.571 258.323 370.72 275.939 363.471C294.685 355.769 311.907 344.329 326.305 330.001C340.704 315.673 352.278 298.513 360.127 279.711C367.975 260.908 372.098 240.577 372.154 220.133C372.211 199.745 368.315 179.3 360.579 160.385C352.843 141.469 341.381 124.14 326.983 109.585C312.585 95.0302 295.363 83.3639 276.504 75.4919C258.774 68.0163 239.633 63.9387 220.435 63.429V4.47401C247.369 4.87044 274.246 10.3072 299.203 20.5578C325.289 31.2614 349.23 47.232 369.218 67.1668C389.263 87.1016 405.355 111.057 416.252 137.222C427.206 163.386 432.853 191.703 432.909 220.076C432.966 248.449 427.488 276.879 416.704 303.157Z" fill="white"/>
</svg>
