<svg width="106" height="140" viewBox="0 0 106 140" fill="none" xmlns="http://www.w3.org/2000/svg">
<circle cx="52.5" cy="46.5" r="40.5" fill="white"/>
<path d="M52.9053 0C23.91 0 0.405273 23.5047 0.405273 52.5C0.405273 64.9206 5.8784 75.8428 11.9356 85.3125L49.3353 138.154C50.1556 139.313 51.4878 140 52.9053 140C54.3228 140 55.655 139.313 56.4753 138.154L93.875 85.3125C99.6631 77.5206 105.405 64.9206 105.405 52.5C105.405 23.5047 81.9006 0 52.9053 0ZM52.9053 83.125C35.9915 83.125 22.2803 69.4137 22.2803 52.5C22.2803 35.5863 35.9915 21.875 52.9053 21.875C69.819 21.875 83.5303 35.5863 83.5303 52.5C83.5303 69.4137 69.819 83.125 52.9053 83.125Z" fill="#EC6608"/>
<path d="M66.6439 39.1889C63.3534 35.8895 59.0847 33.9294 54.4932 33.5791V26.4863L51.5042 32.2133V70.7147C42.3535 69.9507 35.1393 62.24 35.1393 52.87C35.1393 44.5471 40.8311 37.5333 48.516 35.5341V34.0452C45.0755 34.8622 41.9174 36.6188 39.3542 39.1889C35.7092 42.8429 33.7021 47.7019 33.7021 52.87C33.7021 58.038 35.7092 62.897 39.3542 66.5518C42.6447 69.8512 46.9134 71.8113 51.505 72.1616V75.6755H54.4939V35.026C63.6454 35.79 70.8596 43.5007 70.8596 52.8707C70.8596 61.1935 65.1678 68.2074 57.4829 70.2073V71.6963C60.9234 70.8792 64.0815 69.1226 66.6446 66.5526C70.2896 62.8978 72.2967 58.0395 72.2967 52.8707C72.2967 47.7019 70.2889 42.8429 66.6439 39.1889Z" fill="#EC6608"/>
</svg>
