<svg width="50" height="56" viewBox="0 0 50 56" fill="none" xmlns="http://www.w3.org/2000/svg">
<path d="M46.8147 35.7313V20.0797C48.6249 19.6392 49.9729 18.0053 49.9729 16.0615C49.9729 13.7808 48.1177 11.9253 45.837 11.9253C44.6529 11.9253 43.5843 12.4263 42.8294 13.2267L29.205 5.36069C29.3133 4.99171 29.3722 4.60195 29.3722 4.19847C29.3722 1.91797 27.517 0.0625 25.2363 0.0625C22.9558 0.0625 21.1004 1.91797 21.1004 4.19847C21.1004 4.60195 21.1596 4.99171 21.2679 5.36069L7.64364 13.2265C6.88904 12.4262 5.82025 11.9253 4.63622 11.9253C2.35544 11.9253 0.5 13.7808 0.5 16.0615C0.5 18.0051 1.84814 19.639 3.65815 20.0797V35.7314C1.84814 36.172 0.5 37.8059 0.5 39.7496C0.5 42.0301 2.35544 43.8856 4.63622 43.8856C5.76885 43.8856 6.7963 43.4277 7.54409 42.6875L21.2679 50.6109C21.1596 50.9799 21.1004 51.3697 21.1004 51.7731C21.1004 54.0537 22.9558 55.9091 25.2363 55.9091C27.517 55.9091 29.3722 54.0537 29.3722 51.7731C29.3722 51.3696 29.3133 50.9799 29.205 50.6109L42.929 42.6872C43.6768 43.4276 44.7042 43.8856 45.837 43.8856C48.1178 43.8856 49.9729 42.0301 49.9729 39.7497C49.9729 37.8058 48.6249 36.1717 46.8147 35.7313ZM43.6722 40.0001C43.6629 39.9178 43.6566 39.8345 43.6566 39.7496C43.6566 38.8993 44.1471 38.1628 44.8589 37.8035C45.1536 37.6548 45.4851 37.5691 45.837 37.5691C46.1887 37.5691 46.5201 37.6548 46.8145 37.8034C47.5268 38.1625 48.0174 38.899 48.0174 39.7496C48.0174 40.952 47.0393 41.93 45.837 41.93C45.4406 41.93 45.0698 41.822 44.7492 41.6364C44.1659 41.2987 43.7526 40.7 43.6722 40.0001ZM44.6145 14.2571C44.9634 14.0199 45.3841 13.8809 45.837 13.8809C47.0393 13.8809 48.0174 14.8591 48.0174 16.0615C48.0174 16.9121 47.5268 17.6484 46.8148 18.0077C46.5204 18.1563 46.1889 18.2419 45.837 18.2419C45.4853 18.2419 45.1538 18.1563 44.8592 18.0075C44.1471 17.6484 43.6566 16.912 43.6566 16.0615C43.6566 16.0289 43.6601 15.9972 43.6615 15.9651C43.6929 15.2556 44.062 14.6328 44.6145 14.2571ZM23.0559 4.19847C23.0559 2.99615 24.034 2.01808 25.2363 2.01808C26.4386 2.01808 27.4166 2.99615 27.4166 4.19847C27.4166 4.24103 27.4128 4.2825 27.4104 4.3245C27.3697 5.03219 26.9921 5.65027 26.4336 6.01872C26.0896 6.24571 25.6785 6.37886 25.2363 6.37886C24.7943 6.37886 24.3832 6.24571 24.0392 6.01872C23.4807 5.65027 23.1031 5.03219 23.0625 4.3245C23.06 4.2825 23.0559 4.24103 23.0559 4.19847ZM2.45555 16.0615C2.45555 14.8591 3.43375 13.8809 4.63619 13.8809C5.08895 13.8809 5.50979 14.0197 5.8587 14.2569C6.41117 14.6325 6.78043 15.2555 6.81167 15.9649C6.81316 15.9971 6.81658 16.0289 6.81658 16.0615C6.81658 16.9122 6.3259 17.6485 5.6137 18.0078C5.3192 18.1562 4.98787 18.2419 4.63619 18.2419C4.28426 18.2419 3.95265 18.1562 3.65812 18.0075C2.94605 17.6483 2.45555 16.9119 2.45555 16.0615ZM5.7238 41.6366C5.40324 41.8222 5.03248 41.9301 4.63622 41.9301C3.43378 41.9301 2.45558 40.952 2.45558 39.7497C2.45558 38.8992 2.94611 38.1628 3.65815 37.8035C3.95268 37.6548 4.28429 37.5692 4.63622 37.5692C4.9879 37.5692 5.31924 37.6548 5.61373 37.8032C6.32593 38.1626 6.81661 38.899 6.81661 39.7496C6.81661 39.8346 6.81045 39.9179 6.80106 40.0004C6.72042 40.7003 6.30723 41.299 5.7238 41.6366ZM27.4167 51.7731C27.4167 52.9755 26.4386 53.9535 25.2363 53.9535C24.034 53.9535 23.056 52.9755 23.056 51.7731C23.056 51.7306 23.06 51.689 23.0625 51.6471C23.1032 50.9396 23.4808 50.3213 24.0392 49.9527C24.3832 49.7258 24.7944 49.5926 25.2363 49.5926C25.6785 49.5926 26.0897 49.7258 26.4336 49.9527C26.9921 50.3213 27.3697 50.9396 27.4104 51.6471C27.4128 51.689 27.4167 51.7306 27.4167 51.7731ZM28.225 48.9185C27.4715 48.1299 26.4108 47.6371 25.2363 47.6371C24.0621 47.6371 23.0014 48.1299 22.2478 48.9185L8.57094 41.0222C8.70108 40.6212 8.77213 40.1937 8.77213 39.7496C8.77213 37.8058 7.42387 36.1717 5.6137 35.7313V20.0798C7.4239 19.6393 8.77213 18.0053 8.77213 16.0615C8.77213 15.6676 8.71554 15.2867 8.61213 14.9254L22.2478 7.05295C23.0013 7.84168 24.062 8.33438 25.2363 8.33438C26.4107 8.33438 27.4715 7.84168 28.2249 7.05295L41.8609 14.9255C41.7578 15.2867 41.701 15.6676 41.701 16.0615C41.701 18.0051 43.0492 19.639 44.8591 20.0796L44.8588 35.7314C43.049 36.172 41.701 37.8059 41.701 39.7496C41.701 40.1935 41.7722 40.6208 41.9023 41.022L28.225 48.9185Z" fill="#909090"/>
<path d="M36.6763 23.2722L25.839 14.8049C25.4854 14.5286 24.9886 14.5286 24.6351 14.8049L13.7978 23.2722C13.5604 23.4575 13.4219 23.7418 13.4219 24.0427C13.4219 31.309 16.5462 35.6228 19.1672 37.9623C22.0144 40.5035 24.8574 41.308 24.9769 41.3411C25.0621 41.3645 25.1496 41.3763 25.2369 41.3763C25.3245 41.3763 25.412 41.3645 25.4969 41.3411C25.6166 41.308 28.4594 40.5035 31.3066 37.9623C33.9276 35.6228 37.0519 31.309 37.0519 24.0427C37.0519 23.7417 36.9133 23.4575 36.6763 23.2722ZM30.0691 36.4451C28.0262 38.2901 25.9506 39.122 25.2353 39.3715C24.5298 39.1276 22.5052 38.3202 20.4694 36.5032C17.1928 33.5787 15.4825 29.5475 15.3821 24.5159L25.2369 16.8162L35.0917 24.5159C34.9921 29.5128 33.3036 33.5242 30.0691 36.4451Z" fill="#909090"/>
</svg>
