<svg width="70" height="21" viewBox="0 0 70 21" fill="none" xmlns="http://www.w3.org/2000/svg">
<g clip-path="url(#clip0_4001_3588)">
<path d="M66.0355 17.495C67.394 17.495 68.3562 17.2497 69.0732 16.7214V14.3252C68.3374 14.8346 67.4506 15.1554 66.2053 15.1554C64.1109 15.1554 63.243 13.5328 63.243 10.9667C63.243 8.2686 64.2996 6.89124 66.2241 6.89124C67.3562 6.89124 68.4694 7.28747 69.0543 7.66483V5.17426C68.4317 4.83464 67.3562 4.58936 65.8845 4.58936C62.1298 4.58936 60.1864 7.28747 60.1864 11.0611C60.2053 15.1931 62.1109 17.495 66.0355 17.495ZM47.677 16.4007V14.0044C46.7713 14.6271 45.2241 15.1743 43.8091 15.1743C41.6581 15.1743 40.8468 14.1554 40.7147 12.0799H47.8091V10.5328C47.8091 6.212 45.9034 4.58936 42.9789 4.58936C39.394 4.58936 37.6958 7.3252 37.6958 11.0799C37.6958 15.4007 39.8279 17.495 43.5638 17.495C45.4317 17.495 46.8091 16.9856 47.677 16.4007ZM20.7524 4.81577V9.72143H16.8279V4.81577H13.8845V17.2497H16.8279V12.0611H20.7524V17.2497H23.6958V4.81577H20.7524ZM36.96 14.9101H35.6581V4.81577H27.0921V5.87237C27.0921 8.91011 26.9034 12.8346 25.8657 14.9101H24.9223V20.0799H27.6392V17.2497H34.2241V20.0799H36.9411V14.9101H36.96ZM57.0543 17.2497H60.394L55.677 10.5516L59.8279 4.81577H56.8657L52.7147 10.5516V4.81577H49.7713V17.2497H52.7147V11.1365L57.0543 17.2497ZM42.9034 6.89124C44.3562 6.89124 44.809 8.09879 44.809 9.66483V9.91011H40.7147C40.7902 7.92898 41.5072 6.89124 42.9034 6.89124ZM32.7147 14.9101H28.5638C29.3751 13.0422 29.6015 9.64596 29.6015 7.49502V7.11766H32.7147V14.9101Z" fill="white"/>
<path d="M11.4317 17.2499H8.4317V2.40083H7.09207C4.63924 2.40083 3.35622 3.62725 3.35622 5.45744C3.35622 7.53291 4.24302 8.49517 6.07321 9.72159L7.58264 10.7405L3.24302 17.2499H0.0166016L3.92226 11.4386C1.67698 9.83479 0.412828 8.26876 0.412828 5.62725C0.412828 2.32536 2.71472 0.0800781 7.07321 0.0800781H11.4128V17.2499H11.4317Z" fill="#FC3F1D"/>
</g>
<defs>
<clipPath id="clip0_4001_3588">
<rect width="69.2453" height="20" fill="white" transform="translate(0.0166016 0.0800781)"/>
</clipPath>
</defs>
</svg>
